<?xml version="1.0" encoding="UTF-8"?>
<svg id="a" data-name="Layer 1" xmlns="http://www.w3.org/2000/svg" width="500" height="500" viewBox="0 0 500 500">
  <g>
    <path d="M317.491,66.299c-.479,1.184,2.32,1.975,2.937,2.413,2.672,3.344,7.421,4.381,10.752,6.681,3.963,4.823,10.598,7.301,14.751,11.942,1.604.847,3.583,3.112,4.012,4.929,4.225,3.018,6.712,8.49,11.039,11.305,1.441,1.123,2.955,3.732,3.025,5.611,1.756,2.263,4.876,4.678,6.021,7.382,5.835,11.197,10.301,23.24,14.876,34.883.196,5.09,2.235,10.536,3.288,15.501.1,6.249,1.213,12.592,1.728,18.937-2.302,4.956.272,10.764-.996,15.796.223,1.643-.095,4.76-.957,6.249.288,1.559.498,4.806.097,6.386-1.709,4.774-1.207,10.776-4.116,15.207-1.873,5.893-2.433,12.332-5.31,17.737-.613,8.172-5.171,15.852-5.55,24.106,1.353,4.842-.847,10.737,1.931,15.22,1.399,3.578,2.762,8.233,6.075,10.553,1.575,2.553,3.152,6.259,6.48,6.864,2.662,3.209,7.72,4.578,10.563,7.524,1.231,3.156,1.309,8.315-2.772,9.259-6.483,1.23-18.172-8.65-21.216-14.096-1.778-2.522-5.597-3.969-5.596-7.459-4.027-4.665-6.108-11.359-6.289-17.511-2.528-10.253.355-21.682,4.448-31.134,3.712-18.803,11.251-36.758,10.17-56.22,1.12-14.989-1.746-29.391-5.177-43.97-3.261-5.266-4.73-12.045-7.132-17.76-2.939-2.773-4.654-7.391-6.692-10.847-2.91-2.779-4.603-7.272-7.088-10.529-8.083-9.666-17.655-18.224-27.446-26.213-5.644-2.623-11.385-5.991-16.393-9.676-5.054-1.29-9.791-4.443-14.639-6.15-7.228-1.334-14.299-3.471-21.606-5.182-9.483-.238-18.969-2.46-28.442-.103-9.47.487-19.444.773-27.906,4.892-1.753-.144-4.719.596-6.007,1.936-3.065-.248-6.772,1.17-8.759,3.58-1.756.039-4.639,1.076-5.761,2.568-3.771,1.293-8.201,3.076-11.602,5.184-2.826,2.799-6.918,5.392-10.406,7.293-1.371,2.754-5.041,4.354-7.532,5.842-4.2,5.636-9.642,11.296-15.281,15.906-2.308,3.239-3.945,7.763-7.556,9.923-3.069,4.109-5.614,8.937-7.308,13.743-2.254,1.848-3.915,5.347-4.416,8.197-1.178,1.124-2.901,3.735-2.941,5.489-2.073,2.205-1.948,6.233-3.998,8.459.314,3.009-2.213,6.136-2.367,9.073-.457,1.489-1.964,4.332-2.782,5.656.579,1.731-.357,4.69-1.303,6.111-.177,4.065-1.951,8.275-2.898,12.134.553,5.925-.1,12.702-3.531,17.744-10.602,2.022-9.124-8.302-8.048-15.576.012-9.808,5.548-18.739,5.845-28.36,2.255-2.211,3.124-6.001,3.111-9.029,1.337-3.794,4.1-7.809,4.521-11.905,4.017-4.878,5.566-11.635,8.499-17.109,1.204-2.751,4.575-4.915,5.525-7.804,4.353-8.567,11.31-15.222,17.197-22.804,5.039-1.958,6.953-8.624,11.981-10.288,2.335-3.427,6.882-5.106,9.842-7.791,4.208-2.812,8.456-6.461,13.398-8.155,8.808-5.484,18.782-9.474,28.603-12.918,10.106-2.69,20.558-4.465,30.951-5.446,5.105.317,10.673-.136,15.73-.395,4.829,1.414,10.673,1.231,15.684,1.444,2.579,1.41,6.411,1.91,9.3,1.723,3.763,1.267,8.215,2.648,12.041,3.712,7.798,2.231,15.679,6.365,23.393,9.339Z" fill="#969984"/>
    <path d="M293.433,88.095c9.19,5.207,19.128,9.587,26.562,17.324,3.973,3.14,9.857,5.746,11.441,10.922,3.504,2.189,6.365,6.094,7.914,9.884,6.519,6.578,10.29,16.264,13.329,25.096,3.436,5.521,4.715,11.973,5.797,18.11,1.65,7.136,2.313,14.666,1.982,22.106,1.469,6.064-1.334,12.822-.925,19.202-1.022,5.13-4.096,10.322-3.666,15.698-1.687,6.082-5.879,12.015-5.272,18.57-.964,2.845-3.285,6.185-2.387,9.325-3.662,11.052-4.978,23.283-1.785,34.678-.749,6.901,7.294,20.794,12.426,25.442,3.504,3.706,6.56,9.34,11.426,11.022,3.737,3.878,9.27,5.468,13.254,9.032,5.076,1.067,11.01,2.327,14.853,6.16,2.906,4.516-.92,7.92-5.475,8.724-3.716-1.103-7.882-2.821-11.793-3.234-4.455-2.279-8.516-6.366-13.381-7.695-5.301-4.549-11.574-8.917-16.279-14.16-1.678-1.086-3.027-3.306-3.344-5.217-1.879-2.063-4.154-4.96-5.209-7.56-1.085-2.664-3.964-5.167-5.188-7.745.217-1.909-.225-4.639-1.34-6.206-3.677-6.296-3.278-14.943-2.809-21.895-.888-17.096,5.287-33.773,9.756-49.753-.033-4.271,2.588-8.308,3.784-12.209.368-5.143.581-10.95,2.181-15.84-1.312-8.222-.162-16.902-1.432-25.15-.189-2.995-2.802-6.075-2.342-9.157-1.914-3.537-3.104-7.912-5.222-11.435-3.073-7.785-7.041-15.283-12.681-21.439-3.651-5.997-9.276-11.867-15.2-15.609-3.926-4.879-9.763-7.861-15.409-10.548-2.602-1.207-5.39-3.974-8.14-4.899-1.664-.056-4.627-1.121-6.043-1.947-7.913-2.817-16.688-3.694-24.655-5.704-1.678-.242-4.806.089-6.366.814-2.746-1.51-6.585-.72-9.422.181-10.556-1.378-20.618,4.433-30.784,6.598-3.012,2.702-7.695,4.142-11.406,5.582-5.601,4.597-11.931,8.89-17.444,13.612-11.172,7.912-18.593,20.059-25.322,31.887-6.745,9.554-8.743,21.213-12.97,32.047-.971,7.009-1.577,14.628-3.992,21.434.967,5.154-2.844,10.217-3.258,15.255-4.121,4.906-6.676,11.648-11.853,15.803-4.923,5.777-11.711,14.098-19.967,13.556-9.423-3.629-2.945-12.223,4.125-13.993,2.929-2.523,5.708-6.085,9.135-8.067,3.105-2.75,3.432-7.888,6.85-10.176,2.252-6.729,4.699-13.463,5.654-20.529,1.677-9.671,1.729-20.279,6.261-29.404.03-1.852.948-4.602,2.474-5.813.177-1.674,1.03-4.608,2.167-5.923.16-1.802,1.173-4.558,2.707-5.698.056-3.261,3.496-5.417,4.658-8.229,1.829-6.955,8.192-12.307,12.868-17.874,2.997-5.001,8.529-10.162,12.915-13.84,1.817-.531,3.792-2.812,4.563-4.427,2.957-.852,4.994-4.331,7.602-5.749,4.211-3.023,10.111-4.034,13.782-7.893,3.691-1.55,8.33-2.401,12.037-4.024,3.925-1.055,7.625-4.746,11.991-3.866,2.882-.558,6.286-2.633,9.298-1.697,3.828-.938,8.623-1.771,12.529-1.242,4.803-1.363,10.948-.947,15.705.76,1.746-.512,4.691-.54,6.286.548,2.872.407,6.8.293,9.195,2.218,5.023,1.049,10.363,2.49,15.255,4.258Z" fill="#969984"/>
    <path d="M285.156,149.695c1.178,2.925,5.129,4.176,6.615,6.829,1.458,2.602,5.341,4.262,6.369,7.034,2.037,5.494,6.54,11.891,6.305,17.662-.174,4.282.944,12.208.719,15.489-.077,1.129.063,4.974-.199,6.256-.252,1.236-1.196,4.886-1.646,6.051-1.391,3.603-3.505,12.934-5.35,17.977-1.23,3.363-2.896,8.844-4.448,11.607-3.251,5.786-7.77,17.359-9.254,22.749-.578,2.101-2.639,6.138-3.697,8.422-1.461,3.157-4.7,8.149-5.884,10.849-.918,2.093-3.748,5.735-4.861,8.103-.671,1.428-3.394,4.137-4.034,4.989-1.542,2.052-5.591,9.008-7.416,10.752-1.471,1.406-4.988,5.129-7.185,6.85-5.985,4.688-13.589,13.812-17.564,18.914-1.362,1.747-5.131,5.261-6.578,6.791-2.051,2.169-6.377,6.343-9.279,8.518-4.429,3.319-8.994,9.284-14.132,12.562-2.402,1.533-5.876,4.33-7.451,5.843-1.518,1.458-6.04,3.55-7.827,5.337-2.419,2.419-8.979,5.003-10.876,6.419-1.445,1.078-5.299,4.042-7.807,5.404-3.436,1.865-8.844,4.259-11.527,5.226-2.627.947-7.398,5.105-11.293,5.657-4.973.705-10.81,5.628-14.599,6.097-3.559.441-7.971-7.632-4.147-10.443,4.596-3.378,12.168-4.664,17.673-7.004,4.518-1.92,11.481-5.672,14.311-7.083,2.93-1.46,10.476-6.956,13.382-8.673,1.718-1.015,5.792-3.601,8.054-5.119,3.986-2.674,10.143-5.455,13.506-8.503,4.171-3.779,9.842-9.412,14.406-12.554,1.335-.92,3.506-3.9,4.278-4.729,1.828-1.964,7.225-6.003,9.815-8.184,2.867-2.414,8.351-8.748,11.179-11.781,3.072-3.294,8.157-8.783,11.341-12.156,3.105-3.29,6.789-9.542,10.562-12.903,3.778-3.367,7.512-10.549,9.065-13.41,1.595-2.94,5.346-10.528,6.548-14.233,1.569-4.832,5.192-15.759,8.058-19.879,1.705-2.452,3.565-8.389,4.805-11.387,1.566-3.784,3.636-10.406,4.371-15.15.727-4.697,4.083-11.087,3.874-15.647-.119-2.601,1.078-7.15.439-9.627-.6-2.323-.871-7.61-1.577-9.483-.68-1.803-2.646-6.737-3.634-8.983-2.956-6.717-14.454-14.723-22.163-17.119-3.125-.971-9.359-3.994-12.259-3.651-3.104.368-8.89.18-12.797,1.437-10.05,3.234-23.061,9.211-26.833,16.526-1.968,3.817-6.35,9.457-7.553,13.789-3.982,14.342-10.842,36.6-14.972,54.258-.372,1.591-2.689,4.628-3.064,5.579-.393.997-1.51,4.833-2.052,6.043-1.353,3.02-5.292,7.734-6.882,10.726-2.551,4.801-7.673,11.2-10.963,15.68-3.95,5.377-10.964,10.597-17.231,14.274-2.533,1.486-5.823,4.53-7.82,5.51-2.522,1.237-7.336,5.152-10.672,7.147-6.164,3.688-15.149,5.815-21.437,8.146-9.87,3.659-15.344-10.435-2.958-12.114,5.906-.8,12.489-4.54,17.645-6.612,6.204-2.493,13.159-7.088,19.096-11.003,5.037-3.322,9.851-8.98,14.345-12.38,2.288-1.731,4.454-5.883,6.099-7.26,3.05-2.553,7.887-11.028,10.166-15.964,1.856-4.02,3.169-11.115,5.234-15.001,1.252-2.357,1.171-6.527,2.317-9.238,2.836-6.715,2.431-14.848,4.499-21.769,3.243-10.851,8.485-22.842,13.814-31.862,3.986-6.746,11.695-14.18,17.467-18.25,6.513-4.592,15.45-6.756,23.676-8.704,4.927-1.167,13.752-.025,18.731.617,7.253.936,15.876,5.974,23.158,9.741Z" fill="#969984"/>
    <path d="M280.847,114.667c7.93,3.217,15.277,7.386,22.067,12.442,2.655,3.077,6.743,5.881,8.357,9.592,1.885,2.153,4.868,4.657,5.909,7.413,7.336,7.922,9.68,18.92,13.514,28.595.622,8.28,3.381,17.292,1.544,25.303.669,4.963-1.335,10.807-2.654,15.599-.544,5.014-1.581,11.174-4.93,15.064-1.416,7.229-4.937,14.108-6.078,21.39-1.696,2.548-2.585,6.396-1.655,9.363-2.824,7.903-3.321,16.855-1.167,25.111-.588,2.945-.293,6.923,1.744,9.296.424,12.841,9.317,23.673,15.575,34.318,9.024,12.02,20.774,20.872,33.188,29.202,7.68,3.22,15.504,5.921,22.714,9.96,1.823,4.2-1.837,8.368-5.995,9.179-3.513-1.846-8.077-2.101-11.335-4.665-3-.047-6.01-1.878-7.937-4.081-3.676-1.147-7.665-3.412-10.738-5.711-2.937-4.641-9.083-5.75-12.649-9.7-.834-1.973-2.928-3.547-4.888-4.098-1.438-2.745-5.212-4.341-5.948-7.507-6.361-4.651-15.25-18.672-17.185-26.357-3.234-6.614-6.166-13.56-6.907-21.005-1.215-8.063-2.726-16.873-1.216-25.278-1.104-4.015,1.279-8.603.8-12.719,1.051-1.544,1.728-4.44,1.241-6.281,2.375-9.355,7.197-17.751,9.144-27.254,1.761-4.784,2.593-10.388,4.443-15.342-.551-2.903.262-6.765,1.065-9.551-1.087-3.94-.508-8.713-.216-12.712-1.328-8.347-4.468-16.34-6.901-24.436-3.392-3.939-4.889-9.571-9.201-12.913-1.798-2.21-4.667-4.858-5.919-7.468-1.719-.349-4.276-2.157-5.351-3.486-3.736-3.571-9.588-5.154-13.072-8.909-5.16-.722-10.333-2.996-15.148-4.754-4.969-1.991-10.536-.313-15.675-.976-9.381-1.166-18.721,2.36-27.711,4.767-4.657,2.098-8.601,6.856-13.754,7.716-2.472,3.182-6.291,5.993-9.713,8.051-4.33,5.559-9.087,11.608-13.778,17.196-4.71,8.163-7.511,17.418-11.03,26.017.731,3.01-1.375,6.345-1.948,9.191.166,1.685-.675,4.634-1.464,6.09-.379,1.588-.553,4.707-.232,6.322-1.862,2.439-1.262,6.4-2.753,8.998-.36,5.093-1.955,10.499-4.896,14.725-1.268,6.398-5.102,11.74-9.311,16.546-2.087,3.58-3.936,7.952-7.944,9.9-1.436,3.895-5.84,6.716-9.375,8.578-1.249,2.981-5.383,3.82-7.48,5.99-3.477,2.155-7.55,4.347-11.303,6.001-1.331,1.081-4.591,1.815-6.306,1.501-3.741,2.249-7.973.38-9.785-3.464.647-10.312,17.531-9.4,23.914-16.635,3.087-.665,4.842-4.209,7.5-5.592,3.171-.911,4.1-4.958,6.985-6.288.96-2.845,4.132-5.04,5.767-7.435,2.199-4.726,5.714-8.819,7.563-13.702,2.789-6.583,3.669-14.267,6.17-21.078-.546-7.222,3.21-14.447,3.454-21.78,1.593-6,4.306-11.824,6.906-17.527,2.154-3.534,1.707-9.11,5.953-11.147,4.613-12.073,15.81-19.866,24.876-28.477,4.293-3.014,8.77-6.128,13.526-8.327,4.617-2.119,9.58-5.9,14.904-5.367,4.389-2.285,10.541-4.095,15.503-2.997,6.164.1,13.053-1.986,18.914.712,6.239-.608,12.836,2.106,18.306,4.895Z" fill="#969984"/>
    <path d="M261.131,239.348c-2.631,6.191-5.56,13.759-9.816,18.465-2.384,2.637-4.701,8.053-6.88,10.26-6.812,6.902-14.131,25.747-22.098,33.473-2.503,2.428-6.252,7.597-9.188,9.757-4.839,3.56-10.66,10.179-15.485,13.678-4.17,3.023-8.361,8.351-12.265,10.552-4.712,2.657-10.667,7.74-15.41,10.818-8.753,5.681-20.7,11.453-30.164,16.614-2.238,1.22-6.504,2.527-8.37,3.047-3.637,1.014-12.949,6.16-16.654,2.902-6.537-5.748,3.549-9.983,8.97-11.363,6.022-1.533,16.031-7.041,22.922-10.331,4.237-2.023,10.128-5.465,13.486-8.028,2.718-2.074,7.878-4.991,10.211-7.292,5.867-5.787,16.612-14.98,23.877-20.581,2.104-1.622,4.756-5.499,7.103-6.985,1.468-.93,3.901-4.035,4.652-4.805,2.021-2.072,6.969-6.836,9.419-9.474,7.282-7.842,14.765-24.142,21.149-31.927.855-1.043,2.747-4.101,3.21-5.512.75-2.289,3.35-6.391,4.034-8.502,1.645-5.08,7.172-14.837,9.954-20.928.931-2.04,3.329-5.904,4.307-7.227,2.224-3.008,4.095-13.022,3.876-18.539-.108-2.711.655-7.874-.81-10.244-3.516-5.688-8.44-9.789-16.423-7.413-4.747,1.413-10.371,6.688-11.437,9.174-.416.971-1.995,4.058-2.604,5.032-.499.798-1.991,4.07-2.533,5.136-6.991,13.755-6.585,43.664-14.865,60.15-3.076,6.124-7.882,16.136-11.468,19.784-1.628,1.656-4.928,5.451-6.77,7.1-1.646,1.474-3.219,6.044-5.438,7.864-4.834,3.965-8.898,9.18-13.885,12.648-3.252,2.262-7.298,6.148-9.827,7.699-3.639,2.231-11.851,7.206-15.863,9.898-2.619,1.758-9.091,4.543-11.093,5.661-.867.484-4.485,2.549-5.516,2.955-1.007.396-5.052,1.575-5.971,1.858-1.601.493-6.198,2.791-8.98,3.628-4.62,1.389-12.249,2.984-13.86-3.183-1.362-5.214,5.102-5.793,8.676-7.134,5.758-2.162,14.804-3.591,18.363-6.105,1.803-1.274,6.233-3.065,8.51-4.352,3.079-1.739,8.784-4.416,11.048-6.313,1.723-1.443,5.983-3.699,7.751-5.561,1.081-1.138,4.502-2.882,5.307-3.526,1.391-1.112,5.631-4.761,7.047-6.441.918-1.089,4.039-3.338,4.935-4.045,1.976-1.558,6.918-6.296,8.69-9.334.732-1.255,3.283-4.185,3.83-5.102.593-.996,2.225-4.363,3.387-5.441,5.409-5.016,7.837-15.745,11.669-24.036,2.807-6.073,3.395-14.962,4.404-20.363,1.386-7.423,4.17-17.873,6.139-24.781,1.776-6.227,4.797-12.599,8.345-18.497,2.532-4.208,7.164-8.376,10.34-11.165,4.06-3.565,18.772-6.385,24.608-4.101,11.111,4.348,14.854,13.391,15.493,26.687.203,4.213-.926,10.719-1.811,13.335-.649,1.917-.825,7.049-2.023,9.449-3.373,6.754-4.878,14.577-8.206,21.007Z" fill="#969984"/>
    <path d="M282.514,347.408c3.733,6.328,10.141,10.768,14.31,16.877,6.315,6.912,11.609,15.02,18.473,21.527,7.771,3.475,12.531,11.552,19.914,15.433,2.619,2.928,7.673,3.239,9.888,6.59,3.38,1.312,7.3,3.551,8.881,6.992-.11,9.47-11.101,6.262-15.462,1.5-4.592-2.374-9.437-5.113-13.851-7.623-3.804-4.892-9.861-8.381-14.591-12.379-3.037-1.227-3.85-5.441-6.996-6.507-3.672-3.533-6.899-8.301-10.365-12.065-1.952-.644-3.773-2.818-4.205-4.78-1.379-.948-3.078-3.371-3.606-4.938-8.552-8.403-16.016-24.303-30.937-21.773-4.214,2.708-9.655,4.211-12.761,8.385-5.013,6.319-11.256,12.106-17.006,17.849-7.925,4.754-14.494,12.298-21.896,17.903-13.274,8.464-25.916,18.064-39.995,24.872-7.535,4.976-21.965,8.947-16.5-5.535,4.464-.544,8.551-4.007,12.668-5.537,11.669-4.81,22.087-12.41,32.441-19.627,5.526-2.702,9.877-8.288,15.277-11.281,4.48-2.73,7.567-7.709,11.746-10.607,5.386-4.957,10.324-11.139,16.179-15.278,4.672-5.643,10.759-10.718,17.785-13.106,6.176-1.813,12.996.435,18.892,2.224,4.209,3.133,7.734,7.502,11.716,10.882Z" fill="#969984"/>
    <path d="M265.229,375.588c.62-.715,2.818,1.709,3.286,1.906,3.388.286,5.568,3.816,7.74,6.019,2.852,3.07,7.082,5.861,9.137,9.488,3.727,3.369,8.138,6.416,11.022,10.789,2.781,2.733,7.045,5.183,8.499,8.966,4.287,4.344,9.866,7.769,14.247,11.866,3.413,1.27,8.115,2.911,9.126,6.731.407,7.838-10.459,8.609-13.987,2.948-4.469-1.82-8.969-5.249-11.653-9.284-8.639-4.747-14.755-13.234-21.368-20.218-6.433-9.735-16.269-16.243-26.781-20.843-9.499,1.164-17.103,7.386-23.796,13.765-5.229,6.496-12.757,11.433-19.274,16.478-3.709,3.644-7.926,7.337-11.66,10.828-4.047.898-7.207,4.903-11.028,6.375-2.094,1.926-5.451,3.965-7.619,5.806-7.836,1.873-13.62-1.722-7.303-9.11,1.807-.445,3.922-2.438,4.82-3.992,3.817-1.276,8.383-3.953,10.66-7.317,3.27-.36,5.44-3.843,8.156-5.284,3.293-2.398,7.375-5.054,10.189-7.986,4.863-3.903,10.455-7.773,14.428-12.567,3.62-3.453,8.792-5.948,11.55-10.428,1.501-.604,3.993-2.433,5.067-3.632,2.391-1.549,6.218-2.065,8.523-3.776,5.818-2.226,12.419.642,18.019,2.472Z" fill="#969984"/>
    <path d="M271.437,417.383c8.262,4.88,13.532,13.982,21.568,18.719,5.55,3.63,6.761,15.422-2.18,13.483-7.275-1.512-10.629-9.901-15.966-14.152-6.619-7.874-15.335-15.542-26.276-16.561-9.456,2.58-16.021,9.88-22.68,16.367-.696,1.688-3.022,3.546-4.768,4.012-.861,1.295-2.806,3.806-3.826,4.982-5.358,3.016-12.231,11.034-14.558.169.566-3.914,4.62-7.726,8.122-9.335,1.537-.961,3.353-3.522,3.937-5.209,1.54-.741,3.894-2.807,4.859-4.203,14.389-14.36,35.201-27.787,51.767-8.273Z" fill="#969984"/>
  </g>
  <g>
    <path d="M287.535,296.644c.049.033.094.031.121.025.033-.007.066-.019.099-.038l.003.026.111-.02c.059-.011.116-.023.168-.036.047-.011.096-.02.149-.025.132-.013.264-.028.395-.045.123-.017.252-.024.381-.021.074.003.152,0,.228-.013l.21-.036c.066-.011.131-.021.195-.03.064-.009.131-.017.203-.023.044-.004.089-.01.136-.017.033-.005.066-.006.099,0,.093.014.198.015.303.006l.157-.008c.076.004.154,0,.232-.013.068-.011.137-.02.212-.028.103-.015.209-.029.318-.042.08-.009.159-.018.239-.026l.013.14c.002.015.005.029.01.04-.012.079-.012.157,0,.231.011.068.02.137.027.208.011.109.019.218.027.327.008.114.023.231.044.338.007.074.02.145.037.212l.05.192.013.031c.009.014.025.035.074.074l.039.032.049-.011c.039-.009.08-.016.122-.023.042-.006.086-.012.145-.018.034-.008.071-.013.11-.011.053,0,.101,0,.135-.005.053,0,.108-.003.164-.011.048-.007.1-.013.156-.019l.084-.008.009-.084c.004-.035.004-.062,0-.106l-.002-.017c.003-.023.001-.049-.007-.085.016-.095.019-.187.008-.275-.01-.082-.02-.167-.028-.255-.004-.045-.012-.093-.022-.143-.007-.034-.008-.067-.003-.102.006-.061.007-.118.002-.171-.005-.05-.013-.103-.023-.157l-.01-.035c-.004-.089-.008-.176-.014-.26-.006-.09-.013-.18-.021-.27-.003-.034-.005-.068-.006-.103-.001-.049-.011-.098-.029-.142-.025-.067-.039-.136-.044-.207-.005-.083-.012-.166-.02-.255-.016-.117-.027-.233-.033-.351-.006-.125-.021-.25-.045-.379-.008-.034-.015-.068-.021-.102-.004-.024-.004-.049.001-.074.011-.058.005-.113-.016-.164-.003-.007,0-.021.007-.042.027-.076.033-.152.019-.224-.011-.057-.025-.116-.043-.179-.014-.042-.025-.085-.034-.128-.008-.038-.011-.075-.01-.115-.002-.083-.005-.135-.007-.157-.004-.035-.02-.08-.053-.144l-.027-.051-.262-.023-.023-.009-.746.071-.082.124.014.046c.015.051.029.098.041.14.012.042.022.083.029.114.017.129.032.256.044.38l.037.393c.01.057.016.115.017.175.001.069.005.136.011.201l.025.265c-.034.002-.066.004-.096.006-.062.003-.124.011-.193.023-.059.016-.118.029-.178.04-.056.011-.113.015-.163.017l-.1-.007c-.045-.002-.089.002-.114.01-.077.007-.155.019-.236.035-.077.015-.151.028-.216.039-.065.006-.128.01-.188.011-.066,0-.135.004-.203.011-.17.011-.336.025-.499.044-.164.018-.332.043-.499.075-.058.011-.116.017-.174.02-.062.003-.123.005-.193.006-.03.003-.058.002-.083-.001-.048-.006-.096-.004-.145.01-.037.012-.076.019-.116.02-.059.002-.117.013-.171.034-.022-.001-.041-.002-.039,0l-.359-.015c-.096.002-.195.011-.29.036-.063.016-.124.028-.183.036-.05.006-.105.004-.179-.01-.037-.002-.136.008-.19.145l-.01.025.004.026c.018.134.035.272.051.412.016.143.036.285.06.427l.01.058.055.021c.014.005.022.011.026.013.036.03.075.045.113.04.108-.011.215-.018.321-.023.096-.005.191-.017.282-.036Z" fill="#1d1e1d"/>
    <path d="M288.488,304.083c.041.013.06.015.079.011.069-.01.131-.02.188-.031.055-.011.112-.023.171-.033.031.008.063.011.107.004.116-.032.236-.055.357-.07.127-.015.256-.036.387-.059.127-.023.253-.043.379-.059.128-.016.258-.033.411-.053.04,0,.075-.011.103-.037.009-.004.018-.006.027-.008.014-.002.027-.001.048.004.091.016.153-.003.195-.032.066,0,.133-.003.197-.015.066-.013.134-.021.204-.026.077-.005.151-.015.222-.028.066-.012.135-.023.206-.034l.857-.123c.074-.011.146-.022.218-.035.066-.013.134-.021.204-.026.067-.005.132-.014.195-.029l.01.062.057-.078c.048-.01.099-.015.153-.015h.075l.061-.185-.009-.031c-.02-.07-.039-.137-.056-.201-.015-.056-.032-.116-.05-.178.005-.041-.006-.087-.046-.127-.004-.025-.009-.051-.015-.076-.006-.026-.011-.055-.016-.084.003-.015.004-.029.005-.041,0-.01.001-.02.003-.031l.013-.067-.181-.121-.274.058c-.075.016-.148.029-.219.039-.076.011-.152.021-.227.029-.074.008-.15.015-.227.021-.077.005-.156.015-.238.03-.074.013-.149.022-.223.028-.076.005-.154.014-.235.025-.158.023-.307.009-.465.047-.041.01-.082.017-.124.022-.01-.059-.019-.118-.025-.175-.011-.092-.025-.183-.042-.268-.013-.087-.024-.176-.034-.266-.011-.094-.025-.187-.044-.278-.017-.084-.031-.167-.039-.247-.01-.084-.021-.171-.033-.255-.008-.093-.021-.187-.04-.281-.017-.084-.027-.169-.029-.252-.003-.098-.015-.191-.036-.279-.011-.046-.02-.091-.026-.137l.037-.005c.085-.022.172-.037.258-.045.096-.008.189-.021.28-.04.095-.019.191-.034.287-.045.1-.012.2-.025.299-.039.12-.017.239-.035.357-.055.116-.019.233-.038.351-.055.049-.007.097-.012.171-.015l.191-.01.021-.028.031.023-.006-.051s.006-.006.01-.01c.02-.019.041-.043.062-.071l.069-.091-.114-.07c-.007-.029-.013-.057-.019-.083-.008-.036-.014-.074-.02-.113-.005-.037-.008-.072-.008-.108l-.003-.187-.011-.005.002-.003-.005-.034c-.006-.039-.013-.078-.021-.116-.007-.034-.014-.07-.019-.109l-.015-.103-.103.015c-.049.007-.094.015-.134.023-.036.008-.075.015-.114.021l-.865.124c-.033.005-.065.013-.097.024-.019.006-.038.011-.042.013-.04,0-.078.001-.113.004-.037.002-.075.006-.115.012-.056.008-.111.015-.166.02-.063.006-.124.016-.185.031-.05.012-.1.019-.148.021-.061.003-.124.012-.178.025-.049.007-.098.011-.147.013l-.983.101c-.035.006-.065.013-.092.024-.013.005-.028.009-.034.011-.049.002-.095.001-.14-.002-.058-.006-.121.01-.18.043-.044-.008-.089-.006-.134.004-.031.006-.061.012-.101.019-.042.011-.084.02-.141.028l-.178.026-.02-.009-.036.01c-.031.008-.057.019-.084.013-.04-.004-.083.003-.126.009-.125.013-.245.032-.358.056-.105.023-.218.04-.328.051-.061.002-.12.013-.175.03-.04.013-.084.023-.139.031-.154.038-.232.151-.21.301l.011.079c.002.013.001.027-.004.047-.015.087-.009.163.019.23l-.053.158.03.043c.015.022.029.039.048.059l.058.261.087-.004c.054-.002.104-.006.15-.01.046-.004.094-.009.13-.015.056-.001.11-.013.158-.033.019-.008.034-.011.046-.008.062.011.121.011.175,0,.039-.008.079-.015.116-.021.205-.024.408-.052.609-.083.199-.032.4-.062.602-.091.034-.005.066-.008.098-.011.043-.003.085-.011.125-.022.031-.009.058-.009.084-.013h.026c.054.409.108.812.163,1.209.019.142.039.284.059.427l-.015.021.018-.003c.035.254.072.509.109.767-.046.009-.091.015-.136.019-.086.006-.173.019-.253.036-.084.012-.167.025-.248.04-.077.014-.156.023-.237.03-.087.007-.172.018-.256.033-.079.014-.16.027-.242.039-.084.012-.167.025-.248.039-.079.014-.157.027-.233.037l-.033.011c-.011.006-.02.012-.028.018l-.202.01-.216.103-.007.053c-.017.123-.015.248.006.372.019.112.034.226.046.344l.115.304.053.013c.063.015.111.023.142.025h.023s.021-.008.021-.008c.087-.036.18-.055.276-.057.11-.002.217-.029.317-.08Z" fill="#1d1e1d"/>
    <path d="M289.228,308.213c.02-.003.041-.006.062-.004.038.013.08.01.117-.011.012-.007.027-.014.044-.022l.049-.022.01-.053c.006-.031.011-.062.014-.092.004-.038.003-.073-.004-.109-.024-.13-.052-.259-.081-.386-.02-.088-.042-.177-.065-.266l.058-.025c.035.009.071.009.106-.003.013-.004.028-.008.04-.011.02-.003.04-.011.055-.02.064-.023.127-.043.189-.063.061-.019.127-.038.193-.055.131-.03.262-.056.392-.078.133-.022.266-.046.401-.071.09-.017.181-.03.272-.04.097-.01.194-.024.289-.042.075-.014.149-.031.222-.05.067-.017.134-.03.209-.039.069-.013.138-.022.208-.028.073-.006.145-.01.225-.014.142-.016.283-.033.425-.051.115-.015.232-.03.352-.044.012.035.019.07.021.105.006.077.019.155.039.232.016.062.023.121.02.182-.003.072-.003.147,0,.225l.003.065.06.025c.06.026.118.042.172.049.06.007.126-.003.191-.028l.25-.079c.074-.024.153-.041.241-.053.034-.006.065-.017.092-.03.015-.008.034-.016.056-.025l.061-.025.004-.066c.002-.036.007-.069.015-.1.013-.051.015-.1.004-.154-.015-.055-.026-.113-.032-.173-.008-.071-.021-.14-.039-.206-.016-.059-.032-.119-.045-.179-.013-.054-.02-.11-.021-.168-.004-.11-.014-.219-.029-.33l-.037-.269-.016-.183c-.003-.038-.015-.087-.053-.134l.005-.01-.014-.057.051-.079-.067.014-.05-.195c-.015-.033-.028-.068-.037-.106-.01-.041-.029-.078-.055-.11.008-.04.008-.08,0-.118-.015-.083-.066-.168-.154-.261l-.039-.04-.055.01c-.102.019-.205.038-.307.054-.098.016-.196.044-.291.084-.05-.013-.101-.013-.149.003-.037.012-.076.022-.118.03l-.102.019.02.102c.002.009.003.019.003.029.001.05.025.094.048.106.013.014.016.024.016.032.003.025.003.05-.001.082-.003.056.003.111.02.163l.036.109.05.268-.304.075-.126.015c-.042.008-.08.019-.115.032-.02.007-.04.011-.077.013-.05.009-.097.017-.142.023-.046.006-.094.011-.132.015-.061,0-.121.008-.179.029-.036.013-.073.021-.119.025l-.781.123c-.036.007-.069.011-.099.012-.045.002-.092.011-.143.027l-.195.069c-.06.021-.121.038-.187.05-.12.028-.237.059-.35.094-.105.032-.215.054-.333.066l-.054.01c-.02.004-.043.007-.069.009l-.079.007c-.031.003-.05.005-.052.006l-.077.015-.006-.032c.003-.02.002-.041-.001-.055l-.012-.103c.002-.021,0-.046-.005-.076l-.045-.24c-.007-.036-.018-.067-.037-.098l.005-.019-.138-.301h-.065c-.033,0-.078.004-.142.016l-.638.144-.161.111.054.282.006.117c.002.047.011.094.035.161.002.004.009.016.006.041-.005.052.001.104.015.142.031.136.056.275.074.413.02.15.058.298.12.459,0,.021.003.045.008.071l.111.588c.002.012.002.023,0,.034-.011.047-.007.093.015.141.018.033.029.064.033.095.005.037.006.074.008.089-.011.036-.005.076.021.13l.008.047.041.024c.054.031.101.042.14.042.032,0,.058-.007.079-.015.035-.014.071-.027.108-.039.041-.013.082-.023.123-.03l.219-.042c.03-.011.06-.019.089-.024Z" fill="#1d1e1d"/>
    <path d="M290.828,314.002c.042.028.089.042.14.045.029,0,.056.006.081.015l.03.011.031-.007c.035-.008.064-.019.094-.034.089.003.176-.003.258-.017.08-.013.16-.029.223-.045.034-.002.069-.006.107-.012.055-.008.102-.031.138-.066.028-.026.059-.043.095-.053.059-.017.116-.041.163-.068.204-.099.263-.25.276-.355.002-.011.005-.019.009-.026.016-.022.03-.043.044-.064.015-.024.032-.046.052-.066.032-.033.058-.07.08-.119.028-.08.061-.159.097-.237.041-.09.069-.186.083-.286l.037-.286-.015-.049.019-.056-.002-.023c-.004-.04-.007-.076-.009-.107l-.006-.095-.025-.064c.003-.112.002-.219-.004-.322-.007-.119-.033-.237-.073-.336l-.01-.078-.004-.007c0-.031-.003-.061-.009-.087l-.014-.063c-.004-.017-.011-.033-.021-.051v-.003c-.011-.089-.02-.174-.028-.255-.008-.08-.014-.165-.019-.25-.001-.074-.001-.146,0-.218.001-.064.011-.125.025-.172.016-.034.03-.068.043-.105l.145-.326.074-.028c.03-.012.06-.021.099-.028l.101-.01c.011-.002.027,0,.047.012.076.051.151.104.224.159.068.051.13.109.181.17.049.067.101.131.153.191.048.054.091.112.139.183l.006.008-.098.171.179-.049.01.017c.002.006.005.011.008.017.004.038.008.077.01.117.004.062.02.119.044.166.019.042.033.083.042.123.009.038.014.079.014.115-.003.114.008.215.033.295.026.111.022.222-.015.348l-.018.091c-.025.113-.069.202-.139.278-.025.031-.047.064-.067.101-.014.026-.03.052-.046.079-.02.02-.042.042-.065.067-.029.03-.057.064-.084.1l-.029.039.037.157.668.554.189-.045.015-.062.007-.032c.011-.01.026-.021.045-.036.041-.033.083-.07.125-.111.042-.042.079-.083.112-.122.033-.042.052-.074.062-.104.062-.103.12-.222.172-.354.055-.138.093-.272.115-.392.013-.053.019-.107.019-.16l-.008-.386c-.003-.088-.018-.178-.047-.274-.011-.031-.019-.062-.022-.093l-.012-.118c-.003-.061-.008-.123-.015-.188-.008-.079-.034-.153-.082-.231-.015-.02-.038-.062-.055-.137-.009-.065-.025-.125-.047-.18-.019-.048-.041-.099-.068-.16l-.149-.286c-.036-.062-.072-.122-.107-.179-.039-.064-.086-.123-.149-.183-.04-.033-.076-.068-.105-.105l-.106-.135c-.07-.1-.144-.184-.221-.25-.077-.068-.163-.123-.253-.165-.086-.04-.179-.073-.277-.099-.094-.025-.195-.049-.307-.074-.107-.02-.21-.013-.307.019-.073.024-.148.04-.217.048-.031,0-.061.003-.089.007-.043.005-.084.021-.111.041-.07.039-.136.08-.199.123-.07.047-.131.105-.185.175-.064.089-.129.176-.195.261-.073.095-.13.202-.168.315-.057.165-.094.325-.108.466l-.023.111c-.012.062-.026.123-.04.184-.015.064-.03.128-.042.191-.015.073-.016.15-.005.227.008.057.01.115.005.168-.007.057-.005.112.007.165.009.037.015.074.019.115l.03.225.027.5c.005.074.017.146.033.215.014.058.022.116.026.173.002.053,0,.102-.005.149-.006.052-.014.105-.023.17-.001.026-.007.051-.018.075-.019.043-.033.089-.042.138-.017.102-.059.183-.129.248l-.016.004c-.023.005-.051.015-.064.023-.064.015-.137.012-.214-.01-.078-.021-.141-.056-.195-.108-.051-.046-.102-.087-.153-.123-.039-.028-.07-.061-.093-.096-.048-.084-.099-.165-.153-.241-.046-.064-.08-.135-.11-.23-.045-.081-.076-.146-.095-.195s-.035-.094-.047-.137c-.012-.042-.023-.089-.032-.139-.011-.057-.029-.129-.052-.207-.013-.055-.025-.111-.036-.169-.011-.061-.024-.121-.035-.166-.004-.038-.006-.076-.005-.115l.009-.231c.007-.094.022-.144.033-.17.02-.047.05-.109.086-.178.056-.09.108-.179.156-.267.04-.073.096-.137.166-.19l.08-.139-.036-.05c-.091-.125-.193-.239-.304-.34-.107-.098-.218-.193-.333-.287l-.04-.032-.05.012c-.058.014-.088.039-.103.064l-.141.168c-.052.062-.103.126-.152.191-.025.032-.046.064-.064.096-.023.042-.036.09-.041.155-.018.029-.031.06-.032.073-.025.054-.05.106-.075.157-.027.055-.052.111-.075.174-.024.079-.05.159-.079.24-.031.087-.055.174-.069.255-.018.084-.036.17-.056.258-.025.112-.007.227.05.325-.004.025-.007.051-.007.081,0,.054.006.108.016.164.008.043.012.086.012.133.004.071.019.139.047.202.021.048.04.098.057.147.025.085.056.166.091.244.034.074.077.144.129.21l.007.027c.033.068.071.148.117.238.047.092.098.184.156.276s.118.18.182.263c.067.086.134.155.199.206l.116.103.017.004c.016.015.054.043.116.085.055.036.114.074.178.114l.17.106s.01.006.014.008l-.123.131.267-.064Z" fill="#1d1e1d"/>
    <path d="M292.544,320.372c.011-.008.025-.017.04-.025l.046-.027.004-.053c.003-.032.004-.062.004-.092,0-.037-.005-.074-.016-.109-.038-.127-.079-.252-.121-.375-.03-.085-.061-.172-.093-.258l.055-.032c.036.007.071.002.104-.013.013-.006.027-.011.045-.017.019-.006.036-.017.048-.024.061-.03.121-.057.181-.083.059-.026.122-.051.186-.076.127-.043.254-.083.381-.119.129-.036.26-.074.392-.114.088-.027.176-.049.266-.068.096-.02.19-.045.283-.072.073-.022.144-.047.216-.074.064-.025.13-.044.204-.061.067-.02.134-.037.204-.049.071-.014.143-.026.223-.038.139-.032.278-.064.417-.097.113-.027.228-.055.345-.081.015.034.026.068.033.102.014.076.036.153.064.226.023.059.036.119.04.178.005.073.013.148.024.224l.01.065.063.019c.065.02.122.03.177.03.053-.008.126-.016.187-.048l.24-.106c.072-.032.149-.057.235-.078.035-.011.064-.023.087-.039.014-.009.031-.019.052-.03l.059-.031-.003-.066c-.002-.036,0-.07.004-.101.007-.052.004-.101-.012-.154-.021-.053-.038-.11-.051-.168-.015-.07-.035-.137-.06-.201-.023-.058-.044-.115-.064-.174-.018-.052-.031-.107-.038-.165-.016-.108-.037-.216-.064-.325l-.079-.317-.022-.127c-.007-.037-.025-.085-.068-.128l.004-.011-.021-.057.039-.079-.061.019-.071-.19c-.019-.032-.035-.066-.048-.102-.015-.04-.037-.075-.066-.104.003-.04-.001-.08-.012-.117-.024-.081-.083-.16-.181-.243l-.043-.036-.054.016c-.1.03-.2.059-.3.086-.097.027-.19.065-.28.115-.05-.007-.101-.001-.148.019-.035.015-.073.03-.114.042l-.101.03.031.1c.003.009.005.019.006.029.006.049.033.088.06.101.014.011.018.021.019.028.005.024.008.05.007.083.003.056.015.11.037.159l.126.365-.295.107-.123.029c-.041.012-.079.027-.111.043-.019.009-.039.015-.075.021-.048.014-.094.027-.14.038-.044.011-.092.021-.129.03-.062.004-.121.021-.175.047-.034.017-.07.028-.116.038l-.764.205c-.035.011-.067.018-.096.022-.043.006-.089.019-.14.042l-.186.089c-.058.027-.117.05-.181.07-.117.04-.229.084-.338.131-.101.043-.208.077-.329.102l-.046.014c-.02.006-.043.011-.07.017l-.074.015c-.028.005-.044.008-.055.011l-.075.023-.01-.032c0-.019-.002-.039-.007-.053l-.023-.101c0-.022-.004-.046-.013-.076l-.07-.234c-.011-.035-.025-.065-.048-.094l.003-.02-.169-.284-.065.006c-.031.003-.077.013-.139.032l-.619.211-.148.127.083.275.019.116c.007.045.021.092.052.157.004.006.01.017.011.04,0,.053.012.103.03.14.044.13.084.266.117.403.036.148.089.291.168.442.002.021.008.045.016.072l.172.573c.003.011.004.022.003.034-.006.048.003.094.03.139.021.03.035.06.042.091.009.037.014.074.017.09-.006.037.003.076.036.127l.013.045.043.019c.045.021.085.028.12.028.042,0,.076-.012.101-.025.033-.018.068-.035.104-.05.04-.017.08-.032.119-.044l.213-.065c.029-.013.058-.025.086-.033.019-.005.039-.009.061-.011.04.009.081.002.116-.024Z" fill="#1d1e1d"/>
    <path d="M295.201,325.939c.078-.022.156-.046.215-.068.034-.006.07-.013.106-.023.054-.015.099-.042.129-.079.025-.028.054-.049.089-.063.056-.023.11-.053.155-.085.193-.12.235-.276.237-.383,0-.011.002-.019.006-.025.014-.023.026-.046.037-.069.013-.027.028-.051.044-.071.028-.035.05-.074.068-.128.02-.082.043-.164.071-.246.032-.094.05-.193.052-.293l.007-.287-.02-.048.013-.057-.005-.022c-.009-.04-.015-.075-.02-.106l-.016-.094-.032-.061c-.008-.111-.021-.218-.038-.319-.02-.117-.058-.232-.108-.327l-.019-.078-.005-.004c-.003-.03-.009-.059-.018-.087l-.022-.062c-.006-.017-.015-.032-.026-.047v-.003c-.02-.087-.038-.171-.055-.25-.016-.079-.032-.163-.046-.246-.009-.073-.017-.145-.022-.217-.005-.064-.002-.126.007-.175.012-.035.023-.071.031-.108l.11-.34.071-.036c.028-.015.058-.027.076-.034l.12-.025c.011-.002.027-.003.049.007.081.043.161.088.24.134.073.042.141.094.197.149.056.062.114.12.173.174.055.051.104.103.157.168l.006.006-.081.179.175-.066.012.016c.003.006.007.011.01.017.008.038.016.076.022.114.011.062.032.117.061.16.023.04.042.079.055.118.013.037.022.076.026.113.008.113.031.212.064.289.037.108.045.219.022.348l-.008.092c-.013.115-.047.208-.109.291-.021.033-.039.069-.055.107-.012.028-.024.055-.037.083-.018.022-.038.047-.058.074-.025.033-.049.068-.072.107l-.025.042.053.153.723.48.184-.064.008-.064.006-.035c.01-.011.023-.023.038-.038.037-.037.075-.079.113-.124.038-.046.07-.091.098-.133.028-.045.045-.079.051-.11.051-.109.096-.233.134-.37.04-.145.064-.282.072-.401.007-.055.008-.109.002-.162l-.049-.382c-.012-.088-.037-.176-.075-.268-.015-.03-.025-.06-.032-.09l-.024-.116c-.01-.06-.021-.122-.035-.186-.017-.077-.05-.149-.107-.221-.017-.018-.044-.057-.069-.13-.016-.065-.038-.124-.066-.175-.024-.045-.051-.093-.084-.151l-.178-.269c-.043-.058-.085-.114-.126-.167-.045-.058-.099-.112-.167-.166-.043-.028-.082-.059-.115-.093l-.12-.123c-.08-.091-.162-.168-.246-.226-.085-.059-.175-.105-.269-.137-.092-.031-.188-.054-.286-.069-.096-.015-.199-.028-.313-.04-.108-.01-.211.009-.303.051-.07.032-.143.056-.211.07-.03.004-.059.01-.088.017-.042.01-.081.03-.106.053-.065.046-.127.093-.185.143-.064.054-.119.118-.165.194-.055.096-.11.189-.166.28-.063.102-.108.214-.133.331-.039.17-.059.333-.058.475l-.011.112c-.006.062-.013.124-.021.187-.008.066-.016.131-.021.195-.007.076,0,.152.019.226.014.055.022.112.023.166-.001.057.007.112.025.163.012.036.023.072.031.112l.053.221.079.494c.013.073.032.143.055.21.02.057.034.114.044.169.008.052.012.102.011.149-.001.052-.003.106-.005.173.001.025-.002.051-.01.076-.014.045-.023.092-.027.142-.006.103-.04.189-.103.26l-.014.005c-.023.007-.049.019-.063.03-.063.022-.135.027-.214.013-.08-.013-.148-.041-.205-.087-.055-.04-.111-.076-.166-.106-.04-.023-.076-.053-.103-.085-.056-.079-.115-.153-.177-.224-.052-.059-.093-.125-.134-.217-.053-.076-.091-.137-.115-.183-.024-.047-.045-.091-.062-.132-.017-.04-.032-.085-.047-.135-.017-.056-.042-.124-.074-.2-.019-.053-.036-.108-.053-.164-.018-.059-.036-.117-.052-.161-.008-.037-.014-.075-.017-.114l-.015-.231c-.003-.094.006-.145.015-.172.015-.048.039-.113.067-.186.046-.096.088-.189.127-.282.032-.077.081-.146.145-.206l.064-.147-.041-.046c-.103-.113-.216-.217-.338-.306-.117-.085-.238-.169-.361-.25l-.042-.028-.048.017c-.025.008-.073.025-.095.071l-.124.185c-.045.067-.089.136-.131.206-.021.034-.039.068-.053.102-.018.044-.026.093-.024.158-.015.031-.024.064-.024.077-.019.056-.038.11-.058.163-.021.058-.04.116-.056.181-.015.081-.033.163-.053.247-.021.09-.036.178-.041.261-.009.086-.018.174-.029.263-.014.115.016.226.083.317-.002.025-.001.052.001.082.006.053.017.107.033.161.012.042.021.084.026.131.011.07.034.136.068.195.026.046.051.093.072.14.034.082.073.159.116.233.041.07.092.136.151.195l.01.025c.039.065.087.14.141.225.056.087.117.173.184.258.067.086.137.166.209.242.075.079.15.141.22.184l.142.092c.017.013.059.038.125.072.058.03.122.062.189.094l.18.087s.01.005.014.007l-.104.137.254-.087c.045.024.092.034.146.03.03-.001.056,0,.081.007l.031.008.03-.011c.034-.012.061-.026.089-.043.088-.006.174-.021.256-.044Z" fill="#1d1e1d"/>
    <path d="M297.605,333.861c.081.056.168.084.256.084.046,0,.093-.008.139-.023l.062-.01c.029-.004.057-.013.062-.017.047-.008.092-.018.137-.031l.134-.04c.034-.015.07-.028.106-.038.053-.015.102-.04.139-.07.075,0,.128-.023.157-.047.028-.024.054-.052.079-.087l.04-.054c.084-.07.147-.153.188-.249.033-.078.07-.155.119-.247.005-.013.012-.026.022-.04.021-.03.036-.065.043-.094l.097-.285s.003.002.005.002c.043.019.086.036.137.051.067.015.129.031.187.048l.176.051c.088.035.17.044.245.025l.15.087.053-.032c.052-.032.106-.053.162-.063.081-.014.16-.045.243-.096.005-.004.019-.013.066-.034.031-.019.06-.032.088-.042.045-.016.088-.04.128-.072.035-.029.067-.062.095-.1.023-.031.045-.063.069-.1l.109-.185c.029-.049.068-.091.098-.115.026-.011.062-.034.088-.087.01-.021.019-.039.028-.065.013-.042.023-.086.032-.129l.114-.537c.006-.055.003-.106-.007-.13-.003-.115-.009-.227-.018-.337-.008-.104-.012-.212-.01-.323.001-.071-.004-.141-.017-.208-.014-.074-.042-.141-.08-.199-.03-.048-.047-.091-.051-.137-.013-.061-.032-.117-.057-.167-.022-.044-.045-.087-.068-.127-.033-.065-.065-.128-.094-.192-.03-.063-.059-.127-.091-.202-.026-.048-.049-.096-.07-.144l-.067-.155c-.006-.013-.01-.024-.013-.036-.005-.021-.012-.041-.021-.061l-.053-.105c-.021-.049-.046-.095-.074-.138-.019-.03-.033-.059-.041-.086-.017-.07-.044-.138-.078-.204-.03-.056-.056-.111-.08-.167-.027-.063-.059-.124-.097-.183-.037-.057-.074-.11-.115-.161-.021-.025-.04-.052-.057-.08-.023-.037-.081-.095-.189-.094l-.533.175-.011.021c-.009,0-.018.003-.027.007l-.785.278c-.022-.001-.05.002-.081.016l-.217.093c-.064.028-.126.056-.187.085-.058.028-.118.055-.179.081l-.174.074c-.032.014-.062.028-.093.045-.03.017-.06.034-.087.051-.086.052-.179.092-.279.119-.047.013-.093.032-.138.055-.042.021-.083.042-.126.068-.04.026-.08.045-.119.055-.051.013-.101.034-.15.063-.075-.001-.123.021-.154.043-.021.015-.046.027-.075.035-.084.023-.166.058-.242.104-.055.033-.115.052-.166.057-.052-.007-.101.015-.132.052-.028.021-.057.036-.088.044-.054.014-.108.032-.161.055-.08.034-.159.065-.236.093-.088.032-.175.078-.251.134-.078.05-.159.097-.242.141-.087.046-.173.093-.245.135-.048.02-.066.066-.072.081l-.029.071.039.034-.034.155.097-.008-.012.163.044.034c.027.021.045.044.055.07.016.043.031.089.045.132.008.034.018.068.031.104.012.035.025.068.038.098.008.02.021.038.037.054-.001.019.002.035.007.046.014.062.034.124.057.188.022.057.043.116.066.183l.101.234c.015.053.04.103.075.15.017.023.028.048.031.052-.002.041.014.079.046.108,0,.03.008.064.026.105.052.108.103.217.153.327.051.112.106.223.161.326.012.026.031.049.058.069l.025.065c.03.084.072.164.126.237.047.064.093.129.141.199.033.043.073.081.118.111.031.021.059.045.084.071.078.083.183.167.312.248.124.079.235.144.33.193.047.027.095.053.144.079.053.028.109.051.167.07.042.014.076.03.104.051ZM296.964,331.691c-.001-.034-.012-.067-.03-.096-.014-.022-.027-.045-.033-.058-.016-.053-.038-.105-.066-.154-.023-.04-.042-.081-.06-.121-.021-.049-.039-.097-.053-.141-.016-.051-.035-.103-.06-.161-.034-.068-.063-.14-.083-.212-.014-.048-.031-.095-.052-.144l.119-.14-.155.065c-.009-.016-.018-.033-.027-.05,0-.005,0-.01,0-.015l.486-.208c.009-.004.018-.007.029-.01.029-.007.054-.02.075-.038.046-.028.097-.049.15-.063.069-.017.133-.05.19-.096.069,0,.117-.027.147-.051.019-.016.039-.032.06-.048.022.037.044.074.064.113.03.056.056.112.08.167.04.093.075.185.106.275.031.092.062.188.093.288l.021.038c.034.038.057.084.073.142.024.085.052.166.083.245.029.075.058.151.083.22.008.034.018.067.029.099.013.039.03.075.048.101.022.042.033.085.034.131.001.064.003.127.007.192.003.044.003.089-.002.136l-.017.169c-.004.112-.014.169-.022.197-.013.046-.038.115-.063.186-.065.028-.127.057-.186.089-.037.019-.08.027-.131.02l-.03.002c-.021-.006-.05-.017-.09-.035-.05-.024-.1-.052-.151-.085-.053-.035-.102-.07-.147-.105-.044-.034-.08-.064-.108-.092-.039-.035-.071-.074-.096-.115-.031-.051-.064-.104-.095-.153-.026-.048-.054-.095-.083-.141-.02-.033-.034-.072-.04-.117l-.008-.029c-.008-.018-.02-.031-.034-.042-.002-.021-.005-.04-.011-.058l.119-.165-.162.071ZM300.537,330.876c.009.063.014.126.015.189,0,.024,0,.048-.002.07-.001.013-.007.03-.021.056-.013.031-.017.066-.012.102l.003.026-.013.04-.052.004-.024.059c-.007.017-.014.037-.02.059-.003.011-.007.02-.019.039-.032.065-.068.104-.109.115-.061.016-.129.021-.205.014-.073-.006-.136-.027-.193-.062-.061-.038-.117-.087-.172-.151l-.14-.144c-.014-.03-.029-.053-.044-.071l-.033-.038-.029.002-.028-.036c-.035-.029-.062-.061-.08-.093l-.073-.133c-.012-.027-.025-.053-.039-.08-.007-.014-.013-.029-.018-.05-.021-.078-.047-.15-.078-.214-.028-.058-.056-.12-.084-.186l-.011-.026c-.005-.081-.026-.155-.061-.221-.03-.056-.056-.111-.077-.159-.023-.067-.048-.134-.076-.199l-.091-.206c-.011-.016-.021-.032-.031-.051l.166-.078c.101-.043.2-.085.3-.124.102-.041.204-.086.301-.134.057-.025.114-.053.169-.087.038-.023.077-.046.117-.071l.002.005c.02.04.038.079.054.117.008.019.014.035.018.048.007.029.022.059.045.092l.045.07c.025.059.055.114.089.163.03.044.061.09.092.136.018.029.039.058.066.11-.002.034.008.068.028.098l.02.034c.061.082.109.173.143.269.036.105.079.208.124.303-.003.103.005.208.025.311,0,.004.002.008.002.013l-.079.036.091.036Z" fill="#1d1e1d"/>
    <path d="M299.844,339.071c.033-.038.064-.081.092-.127.059-.092.119-.184.18-.274.062-.092.12-.185.175-.276.022-.035.047-.067.075-.095.044-.045.077-.099.101-.169.014-.05.036-.097.065-.14.037-.055.072-.112.108-.176.009-.02.019-.037.03-.052.081.074.172.146.271.214.119.082.248.152.382.206.133.054.273.093.413.114.144.022.288.019.431-.013.014-.004.028-.004.036-.005.03.003.061,0,.092-.006l.123-.025c.045-.009.089-.021.137-.037.059-.022.113-.047.163-.075.045-.025.092-.049.134-.07.122-.047.234-.111.333-.191.091-.074.182-.151.276-.234.014-.014.028-.03.04-.049l.004-.002c.064-.031.122-.085.178-.17.031-.059.065-.113.102-.163.044-.059.083-.122.122-.195.066-.145.126-.308.179-.483.056-.187.064-.371.023-.55l-.119-.441-.048-.076-.025-.016c-.002-.03-.003-.056-.002-.078v-.025s-.255-.524-.255-.524l-.003-.061-.049-.101c-.011-.053-.027-.087-.042-.1-.033-.048-.059-.098-.077-.149-.02-.058-.046-.113-.08-.165-.003-.051-.022-.098-.058-.135-.012-.012-.021-.023-.028-.034-.007-.027-.022-.051-.042-.07-.014-.064-.039-.121-.073-.171-.026-.037-.049-.076-.069-.118l-.109-.221c-.026-.079-.056-.155-.09-.23-.033-.073-.066-.145-.101-.218-.018-.037-.04-.07-.065-.098-.032-.036-.074-.064-.126-.082l-.034-.006c-.017,0-.037.002-.064.006l-.084.019-.486.211c-.104.038-.206.088-.302.147-.081.05-.169.087-.262.112l-.035.009-.021.028c-.004.006-.013.014-.034.019-.051.013-.093.041-.124.081-.031.009-.06.019-.085.032l-1.221.596-.103.067-.052.025c-.096.041-.188.087-.273.138-.075.045-.155.082-.24.113-.114.043-.225.097-.328.16-.091.055-.192.099-.297.129-.036.009-.07.023-.099.042-.017.011-.036.021-.056.032l-.273.132c-.105.057-.208.112-.308.163-.097.05-.199.095-.311.138-.089.043-.149.1-.177.167l-.008.04c-.001.097.05.143.079.161.008.005.016.01.023.014.007.021.015.041.022.06.013.032.026.064.047.104l.076.121c.023.037.045.075.063.114.024.05.047.101.067.154l.125.32.111-.099c.043-.038.092-.063.152-.074.086-.016.162-.055.228-.116.06-.006.116-.024.164-.054.042-.026.087-.051.136-.074.07-.034.138-.074.204-.118.052-.036.11-.064.18-.087.086-.036.169-.076.248-.121l.124-.07c.033.071.066.14.101.207.048.093.092.192.129.291.042.112.094.222.154.325.047.081.093.164.14.25l-.024.038c-.024.038-.045.078-.064.119-.031.067-.069.144-.115.232-.046.088-.095.176-.146.265-.051.087-.105.172-.162.253-.058.083-.109.157-.156.221-.03.042-.061.084-.094.125-.036.045-.07.09-.096.128-.032.038-.058.074-.077.112l-.045.083-.121.079-.008.043c-.016.079-.001.153.043.213.02.028.036.057.051.099l.138.263c.019.03.036.061.05.094.018.045.041.088.073.137.032.039.064.077.097.113.029.032.059.068.089.108l.082.109.083-.108c.019-.025.038-.047.056-.066.032-.032.055-.07.067-.105.014-.032.032-.063.052-.093.027-.04.051-.081.073-.133.01-.03.026-.057.047-.083ZM301.529,334.744c.076-.032.148-.07.209-.112.074-.047.151-.085.23-.112.069-.024.137-.055.203-.091.001.002.002.003.003.004.016.027.032.056.046.086l.179.366.097.146c.016.023.029.051.038.076.028.1.055.166.082.207.007.011.028.046.066.154.027.067.051.132.074.195.023.066.048.132.076.203.024.051.038.101.043.153.005.063.008.125.01.179l-.008.139.011.023c-.004.028-.012.058-.021.091-.009.032-.02.061-.032.086-.013.028-.024.049-.027.055-.066.093-.137.178-.213.253-.072.072-.158.132-.256.18-.084.041-.184.07-.299.086-.104.015-.196.002-.266-.032l-.272-.187c-.029-.034-.07-.034-.118-.025-.007-.007-.015-.015-.023-.023-.019-.019-.036-.04-.057-.068-.031-.037-.04-.053-.047-.067l-.033-.051c-.014-.028-.036-.059-.069-.099-.021-.025-.038-.053-.051-.084-.02-.047-.043-.091-.067-.129-.062-.103-.12-.204-.174-.304-.055-.1-.108-.204-.16-.312-.018-.036-.034-.073-.051-.112s-.031-.077-.042-.109c-.009-.033-.019-.062-.031-.085l-.093-.191c-.003-.006-.006-.012-.009-.018l.499-.22c.012-.006.029-.018.043-.038l.064-.032c.021-.01.044-.019.085-.032l.113-.038.035-.017c.036-.017.073-.034.109-.051l.147.046-.045-.089Z" fill="#1d1e1d"/>
    <path d="M303.532,345.09c.048-.059.092-.121.136-.197.013-.028.029-.049.049-.066.042-.036.076-.081.099-.129.021-.037.043-.07.066-.099.026-.032.054-.065.079-.095.086-.091.166-.187.238-.286.066-.09.13-.183.191-.279l.032-.018.014-.028c.038-.073.086-.138.142-.193.068-.066.133-.138.194-.215l.157-.189.669-.968c.049-.083.107-.166.172-.244s.12-.168.163-.267l.029-.023.028-.035c.043-.083.087-.163.132-.241.042-.072.092-.138.136-.185l.026-.015.014-.026c.038-.071.081-.139.129-.202.049-.066.1-.13.154-.195.009-.011.019-.02.03-.026.029-.016.056-.034.082-.056l.047-.04-.064-.317-.035-.023c-.01-.018-.019-.037-.028-.057-.012-.029-.024-.053-.035-.074-.007-.013-.016-.028-.029-.042-.025-.064-.059-.108-.102-.136-.014-.009-.024-.021-.034-.037-.005-.011-.009-.026-.009-.046.004-.032,0-.079-.044-.125-.022-.024-.047-.043-.058-.046-.03-.024-.071-.048-.128-.074l-.025-.011-.028.003c-.068.008-.138.016-.209.025-.069.009-.14.015-.219.021-.068.009-.136.014-.203.015-.076,0-.152.006-.227.017-.055.006-.113.004-.171-.008-.078-.016-.156-.012-.231.011l-.126-.013-.504.017c-.044.002-.088.002-.131,0-.052-.001-.103,0-.155.008-.117.018-.234.029-.346.031-.118.003-.236.004-.366.004l-.232.024c-.124.005-.25.022-.375.05-.11.025-.221.038-.33.039-.024-.002-.044.002-.062.01-.097-.01-.192-.006-.282.011-.086.016-.176.027-.268.033-.077.003-.152.013-.224.031-.055.013-.112.014-.169.008l-.041-.008-.037.014h-.003s-.099.012-.099.012c-.018.002-.037.004-.058.005-.056.002-.11.002-.162,0-.062-.002-.126.002-.192.017-.121.029-.241.043-.359.043-.137-.006-.255-.007-.366-.017-.047-.013-.089.006-.117.021l-.029.016-.066.14.026.047c.027.049.051.095.072.138.022.047.047.093.073.142.027.049.056.095.085.136.024.034.044.07.067.121.021.038.041.079.059.121.018.044.037.092.054.145v.043s.052.015.052.015c.018.016.053.034.095.032.144-.002.287-.005.429-.011l.465-.019.029-.032.141-.011c.063-.005.124-.009.185-.013.052-.003.108,0,.161.009.091.021.177.014.249-.019.029-.011.055-.018.078-.021.006-.002.013-.002.02,0l.291.437.013.022c.016.041.034.081.051.119s.037.076.052.099c.015.044.039.083.071.117.016.017.029.034.032.037.014.037.028.071.041.1.016.036.037.071.061.101.039.051.07.108.093.17.052.127.114.251.184.367l.206.34c.038.058.071.116.101.174.023.045.047.091.072.138l-.035.057c-.013.021-.031.038-.056.052-.039.021-.072.054-.097.098l-.054.097c-.017.049-.042.096-.073.138l-.182.261-.029-.008-.495.705c-.022.031-.036.064-.043.099-.002.01-.005.019-.01.029l-.034.068.055.053c.055.052.097.108.126.165.035.069.071.136.107.202.036.065.074.131.114.198.038.064.076.13.114.198l.024.044.134.023.092-.051.014-.025c.055-.096.11-.192.167-.29.053-.091.115-.18.183-.263l.139-.167ZM304.559,340.999c.014-.003.027-.002.04.002.039.014.08.022.133.023l.372-.028c-.013.017-.026.035-.038.053-.04.058-.079.114-.117.167-.046.064-.081.138-.104.22-.007.025-.022.049-.044.07-.04.039-.075.081-.099.117l-.093.11c-.11.156-.223.307-.339.456-.04.053-.078.111-.114.172-.034.057-.068.112-.093.155l-.041.048c-.015-.027-.029-.054-.042-.081-.033-.07-.076-.133-.13-.187v-.003c-.002-.049-.022-.08-.04-.1-.053-.077-.097-.158-.132-.241-.041-.097-.09-.191-.148-.284-.033-.049-.068-.098-.104-.146-.026-.035-.045-.075-.053-.105-.006-.065-.043-.098-.064-.112-.008-.005-.016-.009-.025-.013-.003-.012-.008-.024-.013-.036-.014-.031-.029-.062-.046-.092-.014-.026-.026-.051-.036-.075.03,0,.061-.002.092-.003.072-.004.143-.009.204-.016.08,0,.158-.004.235-.01.074-.005.152-.009.24-.014l.14-.016c.073-.005.148-.01.223-.013.079-.004.157-.01.238-.021Z" fill="#1d1e1d"/>
    <path d="M306.94,350.146c.037-.028.076-.054.116-.076.045-.025.091-.052.136-.081.042-.026.081-.058.117-.096.018-.019.04-.035.07-.049.107-.055.21-.113.304-.175.09-.059.184-.117.276-.168.042-.019.085-.043.128-.07.034-.021.067-.036.11-.051.047-.021.092-.051.132-.088.02-.019.043-.032.081-.045l.17-.07c.062-.025.122-.056.173-.088.056-.028.11-.06.161-.096.046-.032.093-.062.15-.098.037-.029.075-.054.115-.076.017-.009.033-.019.05-.028l.032.049.088-.121c.015-.021.029-.039.04-.053h.073s.031-.032.031-.032c.067-.07.142-.125.23-.168.041-.021.081-.044.119-.07l.098.019-.039-.064c.037-.03.072-.063.105-.098l.005.007c.064-.04.122-.078.175-.114.049-.033.099-.063.159-.094.064-.04.091-.062.107-.078l.008.007.193-.149c.051-.04.092-.09.121-.148l.02-.04-.016-.042c-.022-.059-.042-.101-.058-.127-.026-.041-.054-.083-.083-.126-.028-.039-.055-.081-.081-.123l-.208-.335c-.017-.026-.033-.049-.048-.068-.026-.032-.079-.068-.176-.053l-.082.026-.005.083-.343.214c-.025.015-.046.034-.062.056-.005.007-.01.014-.015.021-.089.061-.177.12-.265.178-.092.061-.188.119-.291.176-.104.065-.203.129-.297.194-.087.06-.182.117-.283.168-.111.056-.218.118-.317.183-.089.059-.18.117-.271.173l-.01-.008-.059.033c-.088.049-.175.098-.259.147-.08.047-.163.088-.247.122-.1.043-.194.093-.281.151-.011.007-.022.014-.033.021.072-.121.137-.247.192-.376l.156-.37.07-.185c.036-.075.076-.149.122-.222.05-.079.095-.165.13-.249.049-.098.1-.195.153-.292.055-.101.104-.208.146-.319.031-.084.066-.167.107-.249.043-.086.085-.173.122-.256l.193-.379c.008-.021.017-.041.027-.062.009-.019.019-.037.036-.065l.229-.495c.046-.098.085-.185.118-.261.034-.078.069-.17.105-.275l.013-.039-.064-.143c-.018-.04-.04-.08-.061-.114-.035-.066-.07-.13-.106-.193-.034-.058-.065-.119-.092-.184-.05-.114-.122-.206-.215-.274l-.031-.023-.171.016.002.053-.072.032c-.037.015-.073.035-.112.059-.108.073-.217.146-.326.217-.11.072-.22.142-.324.207-.075.04-.149.081-.22.123-.074.042-.147.093-.213.146-.064.045-.13.085-.199.119-.076.038-.151.08-.226.126-.012.008-.027.013-.045.017-.045.01-.084.033-.112.067-.126.051-.245.117-.354.197-.108.079-.22.152-.333.217-.108.061-.212.127-.308.197-.093.067-.189.135-.285.2-.058.036-.116.067-.174.092-.077.033-.147.084-.202.145-.013.012-.029.023-.049.033-.031.016-.06.032-.074.042-.038.016-.074.036-.107.061-.025.019-.05.036-.075.051-.111.069-.22.136-.328.2-.11.065-.221.136-.328.208-.052.033-.105.071-.157.113-.048.039-.098.077-.147.115l-.071.053.042.079c.075.141.154.277.236.408.08.128.157.258.233.389l.054.094.068-.044.035.002.039-.03c.034-.028.07-.052.107-.075.045-.028.089-.063.137-.11.033-.04.07-.068.114-.089.063-.029.124-.065.174-.102.047-.029.095-.057.147-.083.059-.03.115-.065.158-.098.05-.032.098-.062.143-.094.044-.031.089-.064.129-.094.017-.011.032-.018.048-.023.03-.011.06-.025.088-.043.06-.037.117-.076.173-.117.051-.038.104-.074.149-.103.083-.039.145-.092.186-.157l.027.006.036-.022c.046-.029.09-.057.13-.086.034-.024.069-.045.107-.063.049-.023.096-.053.14-.087.024-.019.05-.032.078-.037l.047-.01.023-.042c.012-.022.027-.034.05-.04.064-.017.121-.045.179-.09.025-.024.054-.043.085-.056.051-.021.103-.051.144-.084l.25-.156c.033-.026.067-.049.103-.069.022-.012.043-.023.065-.034l-.125.279c-.007.008-.017.017-.028.028-.035.032-.057.07-.067.113-.016.068-.04.128-.073.179-.045.07-.079.148-.102.231-.015.05-.037.097-.069.143-.047.068-.076.145-.083.217-.005.021-.013.037-.024.051-.029.035-.051.075-.056.097-.014.023-.025.045-.032.066l-.068.131c-.092.181-.182.361-.272.541-.089.179-.18.359-.273.543l-.143.312-.153.236c-.024.039-.048.076-.07.112-.03.046-.052.098-.065.152-.003.013-.014.04-.031.081-.021.049-.045.102-.07.157l-.073.156c-.023.049-.039.083-.038.084-.061.089-.099.193-.113.31l-.006.051.105.104c.001.041.01.081.028.119.018.04.039.08.064.119l.082.162.024.036c.023.048.05.095.082.14.028.039.055.081.081.123l.021.034.211.059.041-.03c.04-.03.084-.051.133-.064.07-.019.131-.055.183-.107.047-.014.086-.039.116-.076.014-.017.029-.03.042-.038.09-.05.177-.104.26-.162.081-.057.16-.115.235-.175ZM309.969,348.202l-.008-.02.02.03-.011-.01Z" fill="#1d1e1d"/>
    <path d="M312.448,354.522c.133-.118.264-.248.401-.401.004-.006.016-.021.054-.048l.035-.025.008-.042c.002-.01.004-.019.006-.025.003-.008.005-.015.006-.023.183-.187.283-.401.296-.636.02-.023.034-.052.04-.084.01-.057.021-.109.031-.157.008-.036.024-.072.048-.109l.023-.083c.006-.091.023-.175.049-.248.008-.021.016-.045.023-.073.01-.036.012-.074.007-.092.009-.224,0-.437-.025-.636l.113-.083-.128-.024c-.001-.008-.003-.017-.004-.025-.012-.069-.029-.138-.05-.208l.1-.069-.132-.025c-.052-.141-.122-.281-.21-.419l-.074-.135c-.023-.042-.046-.088-.069-.14l-.077-.167-.02-.029c-.021-.021-.038-.04-.053-.057-.008-.009-.016-.022-.025-.041l-.097-.195c-.035-.07-.078-.138-.125-.196l-.081-.115c-.03-.053-.063-.106-.099-.157-.031-.045-.057-.091-.088-.155l-.094-.121c-.045-.084-.095-.164-.149-.236-.05-.067-.097-.138-.142-.212-.054-.088-.12-.168-.195-.236-.07-.063-.141-.123-.215-.183l-.055-.044-.348.194c-.076.046-.148.096-.218.151-.064.051-.13.1-.194.144-.121.077-.24.157-.357.238l-.349.242c-.024.017-.048.035-.07.054-.008.006-.017.011-.045.019-.074.031-.142.065-.205.101l-.179.106c-.083.044-.163.094-.24.151-.073.053-.144.108-.218.166l-.298.246-.111.106c-.034.034-.073.063-.117.085-.063.033-.12.074-.164.118-.035.03-.07.059-.106.087-.036.028-.074.057-.118.087-.19.138-.382.275-.576.409l-.635.44c-.008.006-.02.015-.03.028l-.218.144-.008.042c-.004.023-.005.046-.004.07.002.035.012.065.029.088l.215.31c.03.053.063.106.099.157l.098.141.058.11c.023.043.048.084.087.137.014.014.028.03.041.049l.042.059c.034.059.071.115.112.169.039.051.081.105.121.154.005.009.012.028.035.078.035.051.075.102.121.152.037.041.068.084.087.115l.023.061c.018.047.051.081.076.088.024.017.042.035.053.054.022.037.05.074.082.114.014.032.037.058.069.077.058.032.104.072.14.125.048.068.099.133.157.197.076.081.164.159.262.232.095.071.19.137.294.202.029.014.057.032.081.053.028.024.072.049.134.053.028.032.066.051.108.056.016.002.029.006.044.016.084.049.172.084.262.105.084.019.169.032.253.04.044.005.08.014.094.019.037.025.077.04.119.045.016.002.032.002.051.002.017,0,.035,0,.056-.002.056-.008.111-.014.166-.019.052-.003.105-.002.168.005.053.002.114.003.183.004.069,0,.142,0,.214-.005.075-.004.148-.013.221-.026.081-.015.148-.038.199-.066.021-.011.047-.017.082-.021.114-.016.223-.048.323-.093.099-.045.194-.102.28-.168.153-.106.299-.221.435-.341ZM312.311,352.409c-.011.059-.02.118-.029.176-.008.056-.018.112-.028.17-.005.028-.012.053-.021.072-.015.032-.027.067-.038.104l-.008.029c-.004.008-.007.016-.009.024-.027.021-.047.049-.057.082l-.024.072c-.04.108-.096.203-.168.284-.076.086-.162.166-.262.242l-.107.093c-.033.029-.067.055-.109.085-.108.087-.224.15-.345.188-.126.039-.26.065-.402.076-.015.002-.031.005-.048.009l-.05.013c-.068.02-.14.027-.21.025-.075-.003-.152-.013-.226-.03-.051-.013-.103-.023-.156-.031-.049-.007-.098-.015-.131-.019-.113-.042-.222-.092-.324-.15-.096-.055-.184-.126-.258-.209-.077-.093-.152-.185-.225-.277-.072-.091-.142-.185-.21-.282-.044-.062-.088-.122-.134-.179-.043-.053-.085-.109-.125-.168-.024-.034-.05-.066-.079-.098-.022-.023-.044-.051-.064-.08-.041-.06-.083-.122-.125-.187-.042-.066-.082-.129-.123-.199l-.011-.015c.006-.007.012-.013.017-.02.008-.01.022-.017.031-.02.036-.005.067-.022.108-.063l.08-.074c.021-.02.045-.039.074-.059l.441-.336c.023-.021.047-.04.071-.057l.074-.052c.064-.037.122-.078.175-.121l.146-.12c.063-.044.129-.081.204-.113.083-.045.161-.092.236-.144.069-.048.141-.095.215-.14.064-.038.13-.079.198-.123.063-.041.125-.077.195-.112.124-.073.245-.149.362-.227.116-.078.233-.157.35-.238l.027-.019c.018.035.039.066.063.095l.127.152c.033.032.062.066.087.101.022.031.04.065.055.099.007.038.024.07.049.097.009.009.016.019.029.036.031.036.057.072.079.107.02.034.038.073.054.122.011.028.029.061.071.118l.171.17.161.321c.005.018.014.035.025.05.004.057.029.128.106.193.06.175.07.362.028.56Z" fill="#1d1e1d"/>
    <path d="M316.412,362.306c.074-.009.147-.023.218-.041.078-.02.145-.047.195-.08.02-.013.045-.021.079-.026.112-.024.219-.063.316-.116.096-.051.187-.115.268-.187.144-.116.282-.24.41-.371.126-.129.248-.269.371-.428.003-.006.015-.022.051-.051l.039-.053.004-.044c.002-.008.003-.015.004-.023.17-.2.254-.42.251-.655.019-.025.03-.055.034-.087.006-.057.013-.11.02-.159.005-.038.019-.074.04-.112l.017-.085c0-.091.011-.176.032-.25.007-.021.013-.047.018-.075.007-.037.007-.074.001-.093-.007-.225-.03-.437-.069-.633l.107-.091-.13-.015c-.002-.008-.004-.017-.006-.025-.017-.068-.038-.136-.065-.204l.095-.076-.133-.015c-.061-.137-.141-.272-.239-.403l-.083-.129c-.026-.04-.052-.085-.079-.135l-.089-.161-.022-.028c-.022-.019-.041-.037-.057-.053-.009-.009-.017-.021-.027-.04l-.111-.188c-.04-.068-.088-.133-.138-.186l-.088-.109c-.034-.051-.071-.102-.11-.151-.034-.042-.063-.086-.099-.148l-.103-.114c-.051-.081-.106-.156-.165-.226-.054-.063-.106-.13-.157-.201-.06-.085-.132-.159-.211-.221-.074-.057-.15-.113-.227-.168l-.057-.04-.333.218c-.072.051-.141.106-.206.166-.061.055-.123.108-.184.157-.115.085-.228.172-.34.262l-.331.266c-.023.019-.046.039-.066.059-.008.007-.017.013-.043.022-.072.036-.138.074-.197.115l-.173.119c-.08.05-.156.106-.228.168-.069.059-.137.118-.205.18l-.28.267-.104.114c-.031.036-.069.067-.111.093-.061.037-.115.082-.155.129-.032.032-.065.064-.099.094-.034.03-.071.062-.112.095-.18.152-.362.301-.546.448l-.602.484c-.011.009-.021.019-.029.03l-.206.158-.005.042c-.003.023-.003.047,0,.071.004.033.016.062.035.087l.236.293c.034.051.07.101.11.151l.103.128.069.112c.026.042.054.08.096.13.016.013.031.029.044.045l.047.059c.038.055.079.109.123.16.042.048.088.099.132.145.006.009.014.027.04.075.039.048.083.096.131.143.04.039.074.08.094.108l.027.057c.021.046.058.08.082.085.026.015.045.032.057.05.024.035.054.07.088.106.016.032.041.057.075.074.059.027.109.065.148.114.052.065.109.127.171.186.083.076.176.148.278.213.1.065.199.123.307.181.031.013.06.028.085.047.03.022.074.047.138.044.03.029.069.046.112.048.015,0,.028.004.044.013.086.042.176.071.269.086.085.013.171.021.256.022.043.002.08.008.096.013.039.022.08.034.12.035h.015c.026,0,.055-.002.092-.007.055-.012.11-.022.165-.03.05-.008.102-.011.167-.007.053-.002.114-.004.183-.008.07-.004.142-.011.214-.02ZM317.216,358.29l.183.31c.006.018.016.034.028.047.008.057.038.125.119.185.072.171.095.357.067.556-.007.06-.012.12-.017.178-.004.056-.01.113-.016.171-.003.029-.009.054-.016.074-.012.033-.022.068-.031.106l-.007.031c-.003.008-.005.015-.007.023-.025.023-.043.052-.052.087l-.018.073c-.032.11-.082.21-.148.295-.07.091-.151.176-.244.259l-.101.101c-.031.031-.063.06-.103.092-.102.094-.213.166-.331.212-.123.048-.255.083-.396.104-.015.003-.031.007-.046.013-.016.004-.032.01-.05.017-.068.025-.137.038-.208.04-.075.003-.151-.002-.228-.015-.051-.009-.104-.016-.158-.02-.049-.004-.098-.008-.131-.011-.116-.034-.228-.076-.333-.127-.099-.048-.192-.113-.272-.191-.083-.087-.165-.174-.244-.26-.079-.086-.155-.175-.229-.267-.048-.059-.097-.116-.146-.17-.047-.051-.092-.104-.137-.158-.026-.033-.054-.064-.086-.093-.024-.022-.047-.047-.07-.076-.045-.057-.091-.116-.138-.178-.047-.062-.09-.123-.136-.187l-.013-.016c.005-.007.011-.015.016-.022.008-.013.027-.021.03-.022.036-.008.066-.027.103-.07l.074-.08c.02-.022.042-.042.07-.065l.416-.365c.022-.023.045-.044.068-.063l.07-.057c.061-.042.117-.087.166-.134l.137-.129c.059-.047.122-.089.195-.127.08-.05.155-.103.225-.16.066-.053.135-.104.205-.155.062-.043.124-.088.189-.136.06-.045.12-.085.187-.125.119-.082.234-.166.346-.252.11-.085.221-.172.333-.262l.025-.02c.021.034.044.064.07.09l.136.142c.035.03.067.061.094.096.027.033.049.067.058.08.009.043.029.079.058.107.01.009.019.018.032.034.033.034.062.068.086.102.023.032.044.07.062.117.012.027.033.058.079.115l.183.157Z" fill="#1d1e1d"/>
    <path d="M319.897,363.706c.048-.049.1-.093.161-.14.053-.046.108-.089.165-.129.059-.042.12-.082.187-.126.114-.086.228-.172.34-.26.092-.071.186-.144.281-.216.028.024.051.051.072.08.044.063.095.124.152.18.045.045.082.093.11.146.034.064.072.129.115.194l.036.055.065-.008c.066-.008.124-.024.173-.046.055-.024.107-.067.15-.121l.175-.195c.051-.057.11-.112.181-.167.027-.023.049-.047.065-.072.009-.014.02-.03.034-.047l.041-.053-.031-.059c-.017-.032-.029-.064-.038-.094-.015-.051-.038-.094-.074-.134-.041-.04-.08-.085-.116-.133-.043-.058-.089-.111-.138-.158-.044-.043-.088-.087-.13-.132-.038-.04-.073-.085-.103-.135-.059-.092-.123-.182-.192-.27l-.275-.362c-.021-.032-.057-.068-.114-.089l-.04-.052.004-.076-.044.036-.15-.151c-.031-.021-.059-.046-.086-.072-.03-.031-.065-.053-.103-.068-.014-.038-.034-.072-.059-.102-.055-.063-.142-.111-.265-.146l-.054-.015-.042.037c-.079.068-.158.136-.238.202-.077.064-.147.138-.208.22-.049.013-.093.04-.127.079-.026.029-.055.057-.087.085l-.078.068.069.078c.006.007.012.016.018.025.026.042.066.067.096.067.018.005.025.012.029.018.015.02.028.042.041.072.025.05.059.094.101.131l.264.28-.225.221-.099.076c-.033.028-.061.057-.084.085-.013.016-.029.029-.059.05-.038.033-.075.064-.111.092-.036.028-.076.057-.106.08-.054.03-.102.068-.14.115-.024.029-.052.055-.09.082l-.611.502c-.028.024-.054.044-.079.06-.038.024-.074.055-.109.096l-.133.159c-.041.049-.085.094-.136.138-.089.085-.174.172-.254.259-.073.08-.157.155-.263.234l-.031.027c-.016.014-.034.028-.055.043l-.062.045c-.027.019-.043.031-.045.033l-.059.051-.023-.027c-.008-.018-.019-.035-.027-.044l-.063-.083c-.009-.02-.024-.041-.044-.063l-.161-.185c-.024-.027-.05-.049-.082-.066l-.277-.208-.057.033c-.027.016-.064.043-.113.086l-.477.448-.083.177.19.217.065.097c.025.038.057.075.112.122.007.004.017.012.027.032.022.048.053.089.085.115.094.1.186.207.273.318.093.119.201.228.335.335.011.018.025.037.044.057l.393.451c.008.009.013.018.017.03.014.046.041.084.085.115.031.018.057.04.076.065.023.03.044.061.052.074.01.037.034.068.086.102l.031.034h.046c.111,0,.171-.048.203-.088.023-.03.048-.059.074-.089.029-.032.059-.062.09-.088l.168-.148c.021-.024.042-.046.065-.066.014-.013.031-.024.051-.034.039-.007.073-.032.095-.068.007-.013.017-.027.028-.042l.03-.043-.017-.05c-.01-.03-.022-.059-.034-.086-.015-.034-.035-.065-.059-.093-.087-.1-.176-.197-.265-.291-.063-.066-.126-.132-.191-.196l.037-.051c.035-.009.066-.028.089-.056.009-.011.02-.021.03-.03.017-.015.031-.034.037-.045.043-.052.087-.102.131-.15.043-.048.09-.098.138-.146.098-.092.197-.18.298-.265.103-.087.206-.175.31-.265.069-.061.141-.118.215-.172.079-.058.155-.119.228-.183.057-.05.113-.102.166-.156Z" fill="#1d1e1d"/>
    <path d="M323.772,369.678c.011-.036.03-.067.055-.093.041-.044.079-.093.106-.142.127-.188.102-.348.06-.446-.004-.01-.006-.019-.005-.027.003-.026.004-.052.005-.077,0-.03.004-.057.011-.083.011-.044.015-.089.01-.144-.015-.083-.027-.168-.035-.254-.01-.099-.034-.196-.072-.289l-.104-.248-.045-.052-.007-.036-.018-.041c-.024-.032-.044-.061-.062-.088l-.053-.079-.053-.042c-.053-.098-.108-.19-.165-.276-.067-.1-.149-.189-.232-.253l-.049-.063-.007-.004c-.016-.027-.033-.051-.052-.07l-.042-.044c-.013-.014-.028-.026-.046-.036l-.002-.003c-.053-.072-.104-.14-.152-.207-.047-.065-.096-.135-.142-.206-.038-.063-.074-.125-.109-.189-.03-.054-.053-.114-.065-.161-.003-.037-.008-.074-.015-.112l-.039-.354.05-.061c.02-.025.042-.049.055-.062l.098-.072c.008-.006.021-.01.048-.014.091.006.183.015.274.025.084.009.167.029.241.056.076.033.152.062.229.088.068.023.136.051.211.089l.008.003-.003.194.134-.129.019.011s.01.007.015.01c.023.032.046.064.068.096.035.051.077.093.12.121.038.027.071.055.099.085.027.028.051.061.07.092.054.099.115.181.176.238.078.083.131.18.162.308l.03.088c.035.11.042.21.019.311-.006.039-.008.079-.007.12,0,.03,0,.06,0,.09-.008.028-.015.059-.023.092-.009.04-.017.083-.022.128l-.006.048.111.117.855.143.141-.133-.019-.062-.011-.03c.005-.015.012-.033.021-.055.019-.049.037-.102.053-.16.016-.057.027-.111.035-.161.008-.052.008-.09.002-.121.002-.12-.007-.253-.029-.393-.023-.148-.056-.283-.098-.396-.016-.052-.038-.102-.064-.149l-.201-.329c-.048-.076-.106-.146-.178-.214-.025-.021-.047-.043-.065-.069l-.069-.096c-.033-.051-.069-.103-.108-.156-.047-.064-.106-.115-.188-.158-.023-.01-.063-.034-.116-.091-.041-.052-.086-.097-.131-.132-.041-.032-.085-.065-.139-.104l-.272-.172c-.063-.036-.124-.07-.184-.102-.067-.036-.138-.063-.22-.083-.052-.008-.1-.021-.144-.038l-.159-.064c-.111-.051-.217-.087-.317-.106-.102-.019-.204-.023-.302-.015-.094.009-.191.027-.289.054-.093.025-.193.056-.303.091-.103.037-.189.095-.256.171-.05.057-.107.109-.163.15-.026.016-.051.033-.074.052-.034.026-.061.061-.075.091-.041.068-.077.137-.11.205-.036.076-.06.157-.072.245-.011.11-.023.218-.037.324-.016.119-.011.239.014.357.034.171.082.328.141.457l.036.108c.02.059.039.119.058.179.019.063.039.125.06.187.024.071.061.138.11.198.036.045.066.094.089.142.022.053.052.1.09.14.026.027.05.056.074.089l.139.18.274.418c.042.062.088.118.136.169.041.044.078.089.109.136.029.044.052.088.071.132.02.048.041.098.066.159.012.023.019.047.022.074.005.047.016.093.033.14.039.105.041.204,0,.291-.017.017-.036.039-.043.052-.048.045-.112.079-.19.099-.08.021-.151.023-.222.005-.067-.014-.132-.024-.195-.03-.046-.004-.091-.017-.128-.036-.083-.049-.168-.093-.253-.132-.071-.032-.136-.076-.21-.143-.079-.048-.139-.088-.18-.121-.041-.033-.078-.064-.11-.095-.032-.031-.065-.066-.098-.104-.038-.045-.089-.097-.149-.153-.039-.041-.077-.083-.116-.128-.041-.047-.081-.092-.113-.125-.023-.031-.044-.064-.063-.098l-.108-.204c-.041-.085-.054-.136-.057-.164-.006-.051-.011-.119-.016-.197.003-.106.003-.209,0-.309-.002-.085.013-.166.048-.248l.01-.023-.011-.137-.057-.025c-.141-.062-.287-.11-.434-.141-.142-.03-.286-.057-.432-.081l-.05-.008-.037.035c-.042.04-.056.076-.057.105l-.038.218c-.014.079-.026.161-.036.242-.005.039-.008.078-.007.115.002.047.015.096.043.154,0,.033.004.066.01.08.006.059.01.117.014.173.004.062.011.121.023.188.019.081.037.163.053.247.017.092.041.179.069.255.027.082.054.166.081.252.034.11.107.2.206.255.008.024.02.048.034.074.028.047.06.091.096.134.028.034.054.069.078.11.039.06.087.11.142.151.043.031.084.064.123.098.065.061.132.116.201.165.066.047.139.086.217.117l.02.019c.063.043.136.092.221.147.086.056.177.109.274.16.096.051.193.096.289.135.101.041.194.068.276.079l.152.029.014-.004h.003c.021.005.068.011.141.015.066.004.137.007.212.009l.201.006c.006,0,.012,0,.017,0l-.039.173.197-.188c.05.004.099-.008.143-.032.026-.014.052-.023.077-.027l.031-.005.023-.021c.026-.024.047-.05.065-.077.078-.042.151-.091.215-.144.063-.051.124-.105.169-.15.029-.019.058-.041.087-.064.043-.035.072-.078.086-.126Z" fill="#1d1e1d"/>
    <path d="M327.731,369.897c.025.024.055.047.09.066.008.005.016.01.023.014.008.027.024.053.05.079l.022.021c.051.043.093.087.128.134.038.052.076.106.114.164.042.063.084.125.126.185.04.056.078.116.118.186.009.013.015.025.017.034.007.024.017.052.031.083l.007.116.097-.028s.009.01.014.014l.013.025c.036.079.06.159.072.24h-.033s.038.038.038.038c.005.05.005.1,0,.149-.006.031-.006.064,0,.099l.025.153.084.004c.127.007.248-.013.362-.055.092-.032.185-.054.274-.066.057-.004.111-.01.163-.016.036-.005.073-.014.111-.026l.069.068-.002-.096s.008-.004.012-.005l.049-.024.008-.054c.009-.059.004-.123-.014-.184-.019-.081-.032-.16-.04-.237-.008-.075-.017-.151-.028-.228.023-.07.011-.125-.004-.161-.015-.034-.033-.07-.05-.099-.031-.068-.064-.134-.097-.196-.027-.051-.046-.106-.056-.166l-.006-.033-.024-.024c-.028-.028-.056-.052-.083-.075-.017-.014-.032-.03-.042-.042-.095-.153-.204-.295-.319-.413-.058-.073-.124-.136-.194-.189-.052-.038-.099-.087-.141-.144-.016-.031-.045-.057-.09-.079-.047-.03-.094-.059-.14-.085-.04-.023-.079-.049-.114-.077-.054-.045-.109-.083-.166-.112l-.15-.08-.013-.031-.061-.023c-.044-.016-.085-.035-.125-.058-.053-.03-.11-.052-.16-.062-.113-.036-.223-.068-.328-.097-.105-.028-.213-.057-.326-.085-.015-.004-.029-.007-.043-.01l-.056-.055v.045c-.097-.017-.195-.022-.292-.016l-.036-.035v.038c-.011,0-.022.002-.033.004-.149.017-.299.057-.446.119l-.232.103c-.065.029-.135.046-.215.051-.077.01-.151.03-.219.061-.063.029-.124.062-.183.098l-.169.104c-.177.117-.317.257-.415.415l-.027.029c-.085.052-.157.117-.213.193l-.143.191c-.072.091-.131.192-.173.301-.034.086-.086.162-.158.23-.021.021-.038.049-.05.08-.01.025-.017.05-.017.058-.022.063-.042.126-.059.191-.017.067-.029.136-.036.203-.005.034-.015.066-.03.094-.026.05-.036.104-.033.151-.007.011-.012.022-.015.031-.072.167-.095.34-.069.51.008.071.013.144.014.218.001.085.014.168.038.249,0,.006,0,.011,0,.013-.019.093-.006.179.04.255.021.034.029.072.024.127,0,.049.023.091.06.12.02.034.038.065.051.094.017.037.038.076.064.119.035.055.066.11.093.167.034.072.082.138.143.198.036.035.067.073.093.114.031.049.064.099.096.142.027.045.062.087.104.128l.098.096c.029.028.061.052.096.072.017.009.032.02.038.025.05.058.104.113.162.163l-.022.023.048-.002c.031.026.063.051.096.074.099.07.202.138.314.208.069.037.141.073.216.109.073.034.145.068.217.1.074.034.15.064.228.09.083.028.17.045.248.051l.172.032c.022.003.041.006.056.01.034.009.072.011.107.005.042-.004.084-.003.128,0,.048.004.093.011.139.017.015.002.03.003.045.003.101,0,.181-.048.227-.138l.011-.036c.016-.144.034-.286.052-.425.019-.138.038-.275.058-.408l.006-.038-.02-.032c-.036-.058-.081-.096-.133-.112-.043-.013-.086-.017-.119-.012-.067.004-.131.012-.191.023-.056.009-.114.019-.172.026l-.008.002c-.009.002-.018.002-.028.002-.022-.002-.046-.002-.072-.002-.016-.002-.03.002-.044.004-.07-.03-.141-.053-.212-.07-.061-.015-.116-.04-.167-.076-.032-.023-.069-.041-.108-.055-.017-.006-.034-.013-.05-.019-.022-.033-.036-.049-.059-.069-.042-.027-.083-.057-.121-.087l-.136-.107c-.034-.02-.066-.042-.098-.066-.032-.025-.062-.051-.089-.077l-.096-.094c-.028-.027-.051-.055-.07-.086-.048-.076-.094-.151-.137-.226-.045-.076-.092-.154-.146-.238-.033-.045-.062-.094-.086-.147-.031-.068-.075-.135-.13-.198l-.005-.015c.012-.055.025-.108.04-.161.02-.072.03-.144.029-.213,0-.05.004-.096.014-.139.011-.045.026-.091.047-.14.04-.101.078-.201.114-.298.032-.086.081-.17.147-.252.04-.049.077-.104.111-.163.03-.052.06-.101.09-.145.037-.052.076-.099.116-.14.038-.039.082-.074.131-.104.042-.028.085-.057.127-.089.038-.028.074-.053.099-.07.062-.03.12-.066.174-.108.037-.029.077-.049.119-.06.046-.01.09-.026.129-.048.032-.017.065-.036.077-.046.106-.032.217-.052.329-.059.117-.007.235-.008.348-.002l.036.002.025-.018c.013.007.027.012.042.015.027.006.055.011.077.013.023.004.048.007.075.007.003,0,.008,0,.01,0,.01,0,.02.002.015-.002.084.045.17.087.257.127.075.035.144.083.207.144Z" fill="#1d1e1d"/>
    <path d="M329.608,376.46c.008-.012.017-.023.03-.037.013-.016.023-.034.028-.045.037-.057.074-.112.112-.165.037-.053.078-.107.12-.161.086-.103.174-.203.264-.299.092-.098.184-.198.276-.3.062-.068.126-.134.193-.197.071-.067.139-.136.205-.209.051-.056.1-.115.146-.175.042-.054.088-.105.143-.158.047-.052.096-.101.148-.148.054-.049.109-.096.171-.148.103-.099.205-.198.307-.299.082-.082.167-.165.253-.248.03.021.057.044.081.07.051.057.108.111.172.161.05.039.092.083.126.132.042.059.087.119.137.178l.042.05.064-.016c.064-.017.12-.038.167-.066.052-.031.098-.079.134-.138l.151-.214c.044-.064.097-.125.161-.189.024-.027.041-.052.054-.079.007-.015.017-.032.029-.052l.034-.056-.037-.055c-.02-.03-.037-.06-.049-.089-.021-.048-.049-.088-.089-.125-.046-.035-.089-.074-.131-.119-.049-.052-.101-.098-.156-.14-.049-.037-.097-.075-.145-.115-.043-.036-.082-.076-.118-.121-.07-.085-.144-.166-.228-.249l-.222-.221-.09-.102c-.025-.028-.065-.06-.124-.075l-.047-.047-.007-.095-.046.053-.159-.125c-.032-.017-.064-.038-.093-.062-.034-.027-.071-.045-.11-.054-.018-.036-.042-.068-.071-.093-.062-.056-.154-.093-.281-.114l-.056-.009-.038.042c-.07.077-.141.154-.212.229-.069.072-.129.154-.18.242-.048.02-.087.051-.117.094-.022.031-.047.063-.076.095l-.069.077.077.069c.008.006.015.014.02.021.03.039.072.054.105.057.018.002.025.008.031.014.018.019.033.039.049.067.031.047.07.086.116.118l.094.064.202.182-.197.245-.09.088c-.029.032-.053.064-.073.095-.011.017-.024.032-.052.056-.034.037-.067.072-.099.104-.033.032-.068.066-.096.092-.05.036-.092.08-.125.131-.021.033-.046.062-.08.092l-.546.571c-.024.027-.048.05-.071.068-.034.028-.066.063-.098.108l-.113.173c-.035.053-.074.103-.119.153-.079.096-.152.191-.221.287-.063.089-.137.173-.228.258l-.034.038c-.014.015-.03.032-.049.049l-.057.051c-.024.021-.037.035-.04.038l-.053.058-.024-.021c-.01-.018-.024-.035-.034-.043l-.073-.075c-.012-.019-.028-.038-.051-.057l-.181-.163c-.027-.025-.056-.043-.089-.056l-.007-.019-.293-.155-.053.04c-.025.019-.058.05-.102.099l-.42.501-.061.185.214.192.076.089c.029.035.065.068.126.108.007.003.018.009.03.029.027.044.063.081.098.104.105.087.209.183.309.284.108.108.228.203.373.292.013.017.03.034.05.052l.445.401c.008.007.015.016.019.027.02.045.051.079.098.103.033.015.061.033.083.055.027.027.05.056.061.069.015.034.042.061.094.087l.035.034.049-.006c.11-.014.164-.068.19-.111.019-.032.04-.065.063-.097.025-.036.052-.068.079-.099l.149-.166c.018-.027.037-.051.056-.073.013-.015.029-.028.047-.041.038-.012.069-.04.086-.08.005-.013.013-.027.021-.043l.025-.047-.024-.048c-.014-.028-.029-.055-.045-.082-.02-.032-.043-.061-.07-.084-.099-.089-.198-.175-.298-.258-.07-.058-.141-.115-.214-.172l.031-.055c.033-.013.061-.035.082-.066Z" fill="#1d1e1d"/>
    <path d="M335.36,379.736c.145-.021.278-.066.395-.134.105-.061.212-.12.322-.178.036-.019.066-.043.091-.072.011-.013.025-.026.054-.053l.319-.38c.039-.047.075-.095.108-.143.038-.055.067-.119.087-.19.011-.038.028-.072.052-.104.035-.047.056-.1.064-.158.029-.029.048-.063.059-.101.01-.034.017-.069.023-.112.004-.066.013-.129.027-.191.016-.071.026-.145.032-.227.002-.188-.013-.382-.045-.571-.007-.085-.029-.167-.064-.244-.033-.073-.076-.144-.127-.209l-.142-.181c-.046-.058-.092-.113-.139-.166-.024-.048-.07-.075-.11-.057-.01-.027-.016-.049-.022-.066l-.009-.03-.462-.386-.005-.057-.048-.027c-.016-.008-.029-.016-.036-.022l-.034-.029c-.017-.032-.043-.055-.074-.068-.047-.029-.09-.063-.128-.1-.042-.042-.089-.079-.139-.111-.027-.055-.067-.084-.098-.099-.022-.011-.039-.021-.053-.033-.016-.013-.034-.024-.053-.033-.042-.057-.092-.103-.151-.135-.037-.02-.074-.048-.115-.088-.036-.03-.072-.057-.11-.081-.022-.014-.042-.033-.067-.066-.046-.05-.093-.098-.142-.144l-.012-.133v-.002s-.003-.035-.003-.035l-.032.039-.088.01c-.026-.023-.052-.045-.078-.066-.072-.06-.156-.088-.243-.087l-.039.009c-.015.007-.033.017-.056.032l-.068.051-.358.391c-.08.078-.153.165-.215.257-.054.079-.119.149-.193.208l-.025.02-.009.031c-.005.018-.014.031-.026.04-.04.031-.067.073-.079.122-.005.004-.01.008-.015.013-.016.013-.033.03-.05.051-.029.035-.058.068-.087.099-.032.034-.064.07-.095.107-.045.053-.088.107-.128.16-.04.051-.081.102-.124.153l-.389.465c-.033.039-.063.08-.09.121-.022.034-.046.066-.067.091-.068.073-.131.15-.188.231-.05.072-.108.139-.173.201-.09.09-.17.185-.237.283-.058.084-.132.164-.216.236-.03.023-.055.05-.073.079-.011.017-.024.034-.038.051l-.041.049h0s-.159.191-.159.191c-.07.091-.139.181-.209.268-.067.084-.143.169-.232.259-.044.053-.101.133-.08.233.037.111.1.14.148.144.006,0,.012,0,.018.001.014.015.027.029.04.042.023.023.046.044.081.072l.12.081c.037.024.073.052.11.083.042.036.085.074.127.117l.242.24.061-.138c.011-.023.024-.044.041-.062.024-.025.05-.05.079-.076.032-.03.062-.06.088-.091.023-.027.042-.059.059-.096.05-.027.092-.065.125-.113.028-.04.059-.082.089-.118.058-.06.107-.128.144-.2.028-.053.065-.101.113-.144.072-.07.137-.143.194-.219l.085-.115s.009.008.014.013c.109.085.215.177.315.274.107.104.224.201.348.291.045.032.09.066.134.103.051.042.105.08.153.107.046.032.091.064.134.097.047.036.099.07.163.106.067.03.131.062.193.098.068.039.138.074.208.106.08.039.157.074.232.105.078.032.161.059.244.079.166.044.336.066.508.066.115,0,.231-.01.347-.03ZM333.873,376.536l.025-.03c.034-.041.066-.083.088-.117l.066-.079.023-.042c.064-.051.12-.109.167-.174.026-.036.055-.07.086-.102.027.013.055.032.084.056l.353.295c.039.033.087.06.145.074.008.009.015.019.033.043.065.069.134.134.207.195.069.058.135.117.197.175.046.045.092.089.137.13.041.038.079.078.119.125.036.036.071.074.105.112.028.032.051.07.069.109.021.055.046.109.075.163.025.046.046.092.063.137.023.062.031.12.023.172-.01.066-.024.134-.042.2-.05.172-.128.318-.23.433-.059.063-.125.119-.195.166-.068.045-.144.078-.228.098-.002,0-.017.002-.069,0l-.368-.059-.061.009-.015.018-.311-.178c-.034-.017-.067-.039-.096-.063l-.211-.176c-.043-.037-.089-.067-.126-.084-.106-.07-.208-.144-.301-.222-.094-.079-.186-.162-.277-.253l-.294-.266.166-.198c.036-.043.07-.082.103-.117.031-.033.061-.073.092-.12l.321-.343.169-.016-.093-.074Z" fill="#1d1e1d"/>
    <path d="M339.145,384.325c-.033-.019-.064-.04-.098-.066-.09-.063-.179-.126-.267-.191-.091-.066-.184-.13-.287-.194-.049-.026-.093-.057-.134-.095-.052-.047-.113-.085-.192-.113-.007-.008-.014-.015-.016-.015l-.065-.07c-.026-.028-.053-.053-.08-.073-.225-.186-.464-.37-.708-.545-.146-.112-.295-.225-.447-.338-.143-.107-.282-.212-.418-.318l.546-.71c.029-.037.059-.071.092-.102.04-.038.079-.081.118-.133.032-.049.072-.094.116-.134.059-.052.097-.118.112-.196l.017-.01c.016-.009.033-.018.052-.027l.037-.017.015-.038c.014-.037.025-.064.031-.081.003-.01.006-.021.008-.032h0c.04-.034.078-.069.114-.106l.106-.111.05-.091.022-.03c.058-.084.118-.165.182-.242.067-.083.13-.172.184-.259l.232-.328c.131-.188.272-.37.42-.546.067-.087.139-.168.218-.246.04-.042.076-.087.109-.134.046-.066.061-.148.044-.236l-.007-.038-.031-.024c-.019-.015-.04-.033-.064-.054-.032-.028-.066-.053-.091-.065-.079-.054-.153-.111-.22-.168-.044-.04-.086-.078-.126-.112-.043-.037-.093-.064-.151-.081l-.071-.105-.088.076c-.018.015-.034.029-.047.038-.023.017-.046.039-.065.065l-.309.363c-.082.089-.158.183-.228.283l-.202.289c-.054.079-.107.159-.159.239-.048.074-.103.143-.164.208-.11.117-.214.239-.294.346-.029.025-.052.051-.067.078-.01.018-.021.04-.023.048l-.354.46c-.053.077-.107.154-.162.229-.054.074-.113.149-.175.221l-.147.165c-.053.06-.101.126-.142.199-.011.021-.024.04-.04.057-.019.021-.04.042-.072.074l-.209.271c-.032.042-.064.089-.093.134-.016.022-.029.041-.037.065l-.046.04c-.015.013-.03.029-.042.045-.016.021-.029.045-.036.072-.07.056-.128.124-.173.202-.037.064-.081.121-.13.17-.08.078-.11.173-.085.275l.007.03.023.021c.083.077.167.15.253.22.091.073.191.134.275.171l.098.14.038.009c.036.008.075.03.118.062.033.025.06.054.077.079.028.051.068.091.127.124.041.018.074.045.1.084.049.072.119.127.206.161.029.013.056.031.081.055l.105.102c.04.031.079.062.115.093.042.036.086.068.128.093.058.038.11.077.159.117.048.04.096.085.148.138.037.035.076.069.119.102l.116.089c.056.043.113.083.171.121l.827.617c.068.052.14.101.206.138.023.018.049.036.079.055.023.015.055.028.096.028.031,0,.068-.008.109-.028l.028-.013.103-.174c.094-.071.168-.159.222-.262.045-.086.088-.174.128-.264.041-.025.074-.064.095-.112l.017-.038-.015-.04c-.026-.069-.068-.121-.125-.155Z" fill="#1d1e1d"/>
    <path d="M344.849,384.074c.042.047.094.083.154.109.043.019.086.04.131.065l.306.166.328.216c.002.008.005.017.008.027.021.068.083.11.185.11.033-.006.068-.024.09-.061.026-.007.056-.025.083-.062l.067-.095c.013-.019.024-.039.032-.061.008-.014.015-.03.02-.049l.035-.009.215-.36c.006-.002.012-.004.019-.006.029-.011.08-.042.1-.124l.01-.042-.093-.15-.028-.013c-.045-.021-.086-.046-.122-.074-.043-.033-.088-.067-.137-.101l-.141-.1c-.045-.032-.088-.066-.13-.101l-.033-.019c-.027-.009-.05-.021-.071-.036l-.246-.183c-.071-.038-.133-.082-.187-.132-.043-.038-.089-.069-.137-.091-.029-.013-.057-.032-.076-.047-.052-.06-.117-.096-.189-.104-.019-.019-.039-.039-.058-.061-.042-.048-.09-.081-.137-.097-.034-.014-.062-.032-.084-.052-.034-.031-.07-.06-.108-.087-.039-.028-.076-.058-.11-.091-.042-.04-.087-.077-.126-.105-.045-.038-.089-.074-.132-.108-.043-.033-.088-.068-.137-.102l-.11-.078c-.042-.03-.084-.055-.113-.07-.019-.014-.042-.033-.069-.058-.031-.028-.046-.047-.052-.057l-.073-.061-.09-.032c-.01-.004-.019-.01-.025-.017-.031-.034-.071-.057-.109-.065-.04-.013-.076-.032-.106-.056-.038-.03-.076-.061-.111-.092-.057-.054-.114-.102-.17-.145-.066-.051-.147-.087-.24-.106l-.032-.007-.03.013c-.121.052-.213.128-.276.229-.03.051-.063.099-.098.145-.038.049-.077.097-.111.139-.055.057-.101.122-.136.193-.024.047-.055.085-.095.115l-.035.025-.006.042c-.004.026-.013.047-.028.062-.032.034-.061.071-.079.098-.034.037-.064.079-.088.124-.018.034-.038.066-.06.097l-.313.444c-.075.107-.15.211-.225.312-.075.102-.151.207-.221.308-.043.051-.082.102-.119.153l-.107.151c-.023.032-.044.064-.063.096-.018.031-.038.066-.052.093l-.141.2c-.024.034-.045.069-.063.105-.009.018-.025.037-.055.064-.031.032-.057.068-.08.105-.02.034-.039.068-.058.105-.024.051-.053.098-.086.14-.038.049-.075.1-.113.153l-.097.138c-.032.045-.057.095-.075.15-.048.032-.086.062-.112.09-.03.032-.058.074-.087.143-.01.01-.021.023-.032.039-.043.07-.087.137-.133.202l-.184.261.02.051c.012.03.021.067.029.111l.027.12.12-.051c.035.029.07.051.103.066l.019.008c.007.01.017.019.028.027l.097.068c.033.023.07.047.101.062.023.016.044.028.063.035l.043.03-.004.006.04.059c.055.083.133.119.217.105.027.019.052.039.077.059.044.034.089.064.125.083.075.053.146.108.215.166.071.059.142.118.211.173.054.045.107.087.16.128.049.037.094.077.138.121.026.025.05.048.073.071.03.03.067.055.097.07.128.09.254.183.379.277s.248.191.37.29c.067.054.136.106.207.156.072.051.146.096.223.136.052.025.102.054.148.087.054.038.109.074.159.103l.032.023.044.018c.019.003.034.008.047.018.01.007.019.017.028.03l.046.071.073.054.017-.002.072.023.085-.014.125-.177c.017-.024.033-.049.048-.075.015-.025.028-.052.031-.063.016-.023.033-.046.052-.068.017-.021.034-.039.052-.056.073-.07.126-.154.157-.248.021-.062.055-.116.105-.164l.051-.05-.028-.065c-.026-.062-.061-.11-.105-.146-.041-.034-.085-.057-.127-.07-.027-.008-.052-.019-.076-.032l-.021-.113-.047.068c-.01-.008-.02-.017-.03-.026-.061-.06-.133-.106-.214-.136-.045-.059-.1-.104-.165-.131-.046-.019-.085-.046-.123-.083-.057-.054-.121-.104-.191-.151-.065-.042-.129-.083-.193-.122-.056-.034-.108-.073-.154-.118-.059-.056-.127-.104-.201-.142l-.015-.007c-.01-.01-.018-.016-.015-.013-.021-.022-.045-.045-.073-.068-.027-.022-.052-.042-.075-.058-.039-.028-.082-.053-.13-.076-.031-.015-.055-.033-.085-.066-.09-.077-.188-.149-.29-.214-.092-.059-.184-.127-.271-.2-.039-.036-.082-.064-.128-.084-.023-.01-.046-.025-.068-.045-.033-.032-.072-.059-.117-.083l-.023-.013c.035-.073.079-.14.129-.2.08-.095.156-.193.23-.297.064-.099.131-.194.201-.285l.167-.217.261.153c.038.027.077.051.116.071.024.013.046.03.068.057.06.063.125.12.19.166.081.064.166.124.249.176.038.027.072.055.103.085.038.038.081.073.135.111.056.034.111.075.162.123.062.057.128.108.2.151.028.015.05.032.067.051.03.032.064.062.113.096.054.027.104.059.149.096l.167.138c.015.011.032.02.07.04l.047.033.208-.089.014-.046c.02-.066.053-.127.091-.176.054-.057.105-.12.154-.189.043-.061.09-.118.14-.173l.023-.027c.015-.015.031-.034.047-.057l.031-.045-.02-.051c-.008-.021-.018-.041-.028-.062-.016-.029-.039-.055-.058-.067-.031-.029-.063-.055-.097-.08l-.282-.199.008-.012-.082-.059.023-.037-.15-.035c-.031-.045-.074-.075-.111-.085-.031-.016-.061-.032-.091-.05-.026-.016-.052-.036-.081-.062-.05-.042-.1-.078-.152-.107-.039-.021-.078-.046-.117-.074-.036-.025-.069-.054-.093-.081-.057-.068-.123-.129-.195-.18l-.187-.131c-.057-.047-.116-.089-.177-.125-.059-.035-.12-.068-.186-.101-.018-.008-.035-.02-.049-.034-.003-.003-.006-.006-.009-.008l.326-.509c.118-.168.219-.337.302-.505.019.018.036.034.05.046.02.018.043.036.068.053l.405.286c.081.057.16.115.24.174.082.061.167.119.249.171l.386.273c.039.028.08.048.142.071.049.079.116.132.2.16.042.014.077.038.109.075ZM346.187,384.357v-.008h0l.003.009h-.003Z" fill="#1d1e1d"/>
    <path d="M349.428,390.356c.033-.044.052-.094.054-.143.002-.038.013-.072.031-.104.03-.053.054-.11.069-.163.079-.212.016-.362-.049-.447-.006-.009-.01-.017-.011-.026-.004-.026-.008-.051-.013-.075-.006-.03-.009-.057-.009-.083,0-.045-.007-.09-.025-.143-.035-.076-.067-.156-.095-.238-.033-.095-.08-.183-.139-.263l-.161-.216-.028-.025c-.007-.005-.016-.009-.029-.015l-.015-.033-.027-.036c-.031-.026-.058-.049-.081-.07l-.071-.064-.062-.029c-.075-.082-.151-.158-.227-.228-.088-.081-.189-.147-.285-.19l-.063-.05h-.007c-.021-.023-.044-.042-.068-.057l-.053-.035c-.015-.009-.031-.017-.051-.022l-.002-.002c-.069-.057-.135-.112-.197-.165-.062-.052-.125-.108-.187-.166-.052-.052-.102-.104-.151-.157-.043-.047-.079-.099-.102-.141-.012-.036-.026-.07-.041-.105l-.123-.335.034-.071c.014-.03.029-.057.039-.074l.079-.093c.007-.008.019-.019.042-.024.09-.015.181-.03.272-.042.083-.011.169-.012.248-.004.082.014.163.024.243.03.071.006.143.017.227.036l.052.194.1-.162.021.006c.005.002.01.004.016.005.03.025.06.051.089.077.046.042.097.073.146.089.043.017.082.037.117.059.032.021.064.046.09.073.076.083.155.148.228.189.096.062.17.144.231.26l.05.078c.061.099.091.193.093.297.004.039.011.079.022.118.009.032.017.066.022.075-.001.032-.001.068,0,.108,0,.042.004.085.009.129l.006.048.136.088.865-.066.106-.163-.033-.055-.017-.029c.001-.015.004-.034.007-.055.007-.053.011-.108.013-.168.001-.059,0-.114-.005-.164-.005-.053-.013-.09-.028-.119-.027-.117-.068-.242-.122-.374-.058-.138-.122-.261-.19-.361-.028-.047-.061-.091-.098-.129l-.274-.272c-.063-.061-.137-.116-.224-.165-.03-.015-.056-.031-.08-.051l-.09-.076c-.044-.041-.091-.083-.141-.125-.06-.05-.131-.086-.22-.109-.025-.004-.07-.019-.135-.06-.052-.04-.105-.073-.16-.097-.047-.021-.098-.042-.159-.068l-.306-.102c-.069-.019-.136-.037-.202-.054-.073-.018-.148-.028-.233-.028-.051.005-.101.004-.149-.002-.054-.007-.112-.015-.17-.023-.118-.023-.231-.032-.333-.027-.103.006-.203.025-.296.058-.09.032-.181.072-.268.121-.085.047-.174.1-.272.161-.09.06-.16.136-.208.227-.035.068-.078.132-.123.186-.021.022-.04.044-.058.067-.027.034-.045.073-.051.107-.023.076-.042.152-.058.226-.017.082-.021.166-.011.255.016.109.03.217.042.323.013.119.047.235.099.343.073.158.158.299.246.41l.061.096c.034.053.067.106.099.16.034.057.068.112.103.167.04.063.092.119.154.166.046.035.087.076.121.117.034.045.074.084.12.114.032.021.062.043.093.069l.178.141.367.34c.055.049.113.093.173.132.05.032.097.068.139.106.038.036.072.072.1.11.032.042.063.086.101.138.017.02.03.042.04.067.016.045.038.087.066.129.063.091.089.187.07.281-.014.021-.027.047-.03.062-.036.056-.089.102-.16.142-.072.039-.141.058-.215.058-.068.003-.133.008-.196.018-.046.007-.092.005-.133-.004-.092-.027-.185-.049-.278-.067-.076-.014-.15-.041-.239-.088-.088-.028-.156-.052-.204-.074-.047-.021-.09-.044-.13-.066-.038-.021-.078-.047-.119-.077-.047-.034-.11-.072-.182-.113-.047-.03-.095-.063-.143-.096-.051-.036-.101-.07-.14-.095-.029-.024-.057-.05-.084-.08l-.154-.172c-.06-.072-.085-.119-.094-.145-.018-.048-.039-.113-.062-.188-.022-.104-.047-.203-.073-.3-.022-.08-.027-.165-.013-.253l.004-.025-.044-.13-.061-.011c-.152-.026-.307-.039-.454-.033-.145.004-.292.013-.439.025l-.05.004-.028.042c-.022.033-.04.07-.031.114l.016.223c.006.081.014.162.024.243.004.039.011.078.021.113.013.045.037.089.078.138.007.033.02.065.029.076.019.055.038.11.055.165.019.058.04.115.067.177.038.074.075.149.11.227.039.085.082.163.128.231.046.073.092.148.139.225.06.099.152.169.262.2.014.02.03.04.051.063.038.038.079.074.125.107.035.025.068.053.101.087.051.048.11.086.174.112.049.02.097.042.143.067.077.043.156.081.235.112.077.03.157.051.239.062l.023.013c.071.027.154.057.25.09.097.034.199.064.304.09.106.026.21.047.313.062.107.016.204.019.287.01l.17-.015c.021,0,.068-.006.141-.02.065-.012.134-.026.208-.042l.196-.042c.005-.001.011-.002.016-.003l.003.18.148-.233c.05-.01.093-.032.132-.066.021-.019.044-.034.068-.045l.029-.013.017-.026c.019-.029.033-.058.044-.089.065-.059.124-.124.175-.192.048-.065.094-.132.128-.187.023-.026.046-.053.069-.083Z" fill="#1d1e1d"/>
    <path d="M354.828,392.508c.024-.028.036-.064.034-.101.003-.01.006-.019.011-.027.007-.011.016-.021.032-.034.07-.062.093-.122.097-.172.043-.051.081-.106.111-.163.032-.059.068-.117.107-.175.044-.064.083-.127.117-.191.032-.059.066-.119.102-.181l.438-.747c.038-.064.074-.128.108-.192.032-.059.068-.117.107-.175.037-.054.069-.11.097-.166l.061.037-.029-.104c.022-.044.05-.086.082-.127l.047-.058-.106-.164-.03-.012c-.068-.028-.132-.055-.191-.081-.054-.024-.111-.048-.171-.073-.029-.03-.071-.049-.127-.044-.022-.013-.045-.024-.067-.035-.024-.012-.05-.026-.076-.041-.008-.01-.017-.019-.028-.028-.008-.007-.016-.015-.024-.023l-.045-.051-.208.066-.126.251c-.034.068-.069.133-.105.195-.039.066-.079.132-.119.195-.04.064-.082.127-.125.191-.044.064-.086.131-.125.204-.036.066-.075.13-.117.193-.043.063-.085.129-.127.199-.037.064-.077.122-.121.177-.052.065-.096.138-.132.216-.018.038-.038.076-.061.111-.053-.029-.104-.059-.153-.09-.078-.049-.159-.095-.235-.134-.076-.045-.153-.091-.23-.14-.081-.05-.162-.097-.244-.138-.077-.039-.15-.08-.218-.123-.072-.046-.147-.091-.22-.134-.078-.052-.159-.1-.245-.144-.078-.04-.15-.085-.215-.135-.077-.058-.158-.108-.24-.146-.042-.02-.084-.042-.123-.065l.018-.032c.037-.081.079-.159.126-.23.053-.08.101-.161.143-.244.045-.086.092-.17.144-.253.053-.085.105-.172.156-.258.062-.105.121-.209.179-.313.057-.103.116-.206.177-.309.025-.042.052-.083.081-.123l.126-.174-.01-.038.034-.01-.04-.025s-.001-.009-.001-.014c-.003-.027-.008-.058-.017-.093l-.029-.11-.125.046c-.027-.013-.053-.025-.076-.037-.033-.016-.067-.035-.1-.054-.032-.019-.062-.039-.106-.074l-.133-.102-.01.005-.031-.021c-.034-.02-.068-.038-.104-.056-.031-.015-.064-.033-.098-.053l-.089-.052-.052.089c-.025.042-.047.083-.066.12-.017.033-.035.067-.055.101l-.443.754c-.017.029-.03.059-.041.09-.007.019-.015.036-.016.041-.025.031-.048.062-.068.091-.021.031-.042.063-.062.097-.029.049-.058.096-.089.143-.034.053-.065.107-.091.164-.022.047-.047.09-.075.129-.036.049-.068.103-.091.154-.025.042-.052.084-.081.123l-.534.83c-.018.031-.031.06-.039.089-.004.013-.01.027-.013.033-.029.04-.058.075-.088.108-.042.045-.068.101-.079.167-.034.03-.061.067-.081.108-.014.028-.028.055-.048.09-.018.04-.038.079-.06.116l-.098.167-.02.01-.015.034c-.013.03-.028.055-.043.074-.025.03-.049.066-.071.104-.068.104-.128.21-.18.314-.049.098-.106.197-.165.289-.036.049-.065.102-.086.155-.015.039-.035.079-.063.128-.066.144-.027.275.104.352l.068.04c.012.006.021.015.034.032.058.066.122.11.192.129l.091.14.052.003c.028.002.049.002.076,0l.24.117.051-.071c.032-.044.06-.085.086-.123.026-.038.051-.079.069-.11.034-.044.058-.093.073-.145.005-.019.013-.033.022-.041.047-.041.084-.087.109-.137.018-.036.037-.07.056-.103.109-.175.214-.35.314-.527.1-.175.202-.351.305-.527.017-.029.035-.057.053-.083.024-.034.044-.072.06-.111.013-.03.028-.055.043-.074.005-.006.01-.013.015-.019.353.212.702.422,1.047.627.122.073.245.146.368.219l.007.024.009-.015c.221.131.445.263.67.396-.021.041-.045.081-.07.119-.048.071-.092.146-.129.219-.043.074-.084.146-.124.219-.038.068-.079.136-.124.204-.049.073-.093.146-.134.22-.039.07-.079.142-.121.213-.043.073-.084.146-.124.219-.038.07-.077.139-.117.206l-.012.031c-.002.012-.004.023-.004.034l-.119.164-.055.233.037.039c.086.09.185.167.295.228.099.055.198.115.298.179l.308.1.043-.033c.051-.04.087-.072.108-.095l.022-.04c.027-.091.07-.176.127-.251.067-.087.112-.187.136-.298.034-.023.047-.036.058-.054.035-.06.066-.116.093-.166.026-.05.052-.102.081-.155.027-.02.049-.043.07-.081.048-.112.105-.221.168-.323.067-.109.132-.223.195-.34.061-.114.125-.225.191-.333.068-.11.135-.222.217-.356Z" fill="#1d1e1d"/>
    <path d="M358.555,392.389c.034.013.066.03.095.05.064.044.133.083.205.115.057.026.109.059.154.098.054.048.112.095.175.141l.053.039.058-.031c.058-.031.108-.066.146-.103.043-.042.077-.1.099-.166l.096-.244c.028-.072.065-.144.111-.221.017-.032.029-.061.035-.09.004-.016.009-.035.016-.057l.02-.063-.049-.045c-.027-.024-.05-.049-.068-.074-.031-.042-.068-.075-.117-.1-.053-.023-.105-.052-.155-.084-.06-.039-.122-.072-.185-.1-.057-.025-.112-.051-.168-.078-.05-.024-.098-.054-.143-.09-.088-.066-.179-.127-.274-.185l-.204-.123-.182-.121c-.031-.021-.077-.042-.138-.042l-.058-.035-.028-.084-.03.057-.186-.085c-.036-.009-.071-.022-.106-.038-.039-.018-.076-.03-.12-.026-.026-.031-.057-.056-.091-.074-.075-.04-.174-.055-.299-.045l-.056.004-.027.049c-.05.091-.1.182-.152.273-.05.087-.089.18-.118.278-.042.03-.073.07-.091.118-.014.036-.031.072-.051.11l-.049.09.09.05c.009.005.017.01.026.017.039.031.088.039.112.03.02-.002.029.003.035.006.021.014.041.03.063.053.041.038.088.068.14.088l.107.04.24.129-.134.284-.067.107c-.021.038-.037.074-.049.11-.007.019-.016.037-.038.067-.024.045-.048.086-.072.125-.024.039-.051.08-.072.112-.041.047-.071.1-.091.157-.013.036-.029.069-.056.108l-.397.684c-.017.032-.035.06-.052.083-.026.035-.049.077-.07.129l-.07.195c-.021.06-.047.118-.079.177-.054.11-.103.221-.148.331-.041.102-.093.201-.161.305l-.024.043c-.01.019-.022.038-.046.074l-.033.049c-.017.025-.027.04-.03.046l-.037.069-.029-.015c-.014-.015-.03-.027-.043-.034l-.088-.055c-.015-.015-.036-.03-.063-.045l-.215-.116c-.032-.017-.064-.028-.1-.033l-.012-.017-.321-.082-.042.05c-.02.024-.046.063-.076.12l-.29.586-.016.195.253.136.095.069c.037.028.08.051.148.075.007.001.019.005.036.021.038.036.081.064.119.078.124.061.248.129.367.203.129.079.268.144.43.195.017.014.037.027.062.04l.526.284c.011.006.019.013.026.022.031.039.068.065.119.077.035.006.067.018.094.034.032.02.062.042.076.053.022.03.055.05.112.063l.042.023.045-.017c.104-.039.144-.105.159-.154.011-.036.024-.072.038-.108.016-.04.034-.079.054-.115l.105-.197c.011-.03.024-.058.038-.084.01-.017.022-.034.036-.051.034-.021.058-.055.065-.098.002-.014.006-.03.011-.048l.013-.052-.035-.041c-.02-.023-.04-.046-.062-.068-.027-.028-.057-.05-.087-.066-.117-.064-.233-.123-.351-.181-.082-.04-.164-.079-.248-.117l.017-.061c.03-.021.052-.049.065-.085.004-.013.011-.026.018-.039.01-.017.015-.037.018-.053.023-.064.046-.126.07-.186.024-.06.05-.123.079-.185.059-.121.122-.238.187-.353.066-.117.132-.236.197-.357.044-.081.091-.159.141-.236.054-.082.103-.166.15-.251.036-.067.07-.135.101-.204.028-.063.061-.123.102-.187.033-.061.07-.121.109-.179.041-.059.084-.119.131-.184.077-.12.153-.241.227-.362.061-.099.123-.2.188-.301Z" fill="#1d1e1d"/>
    <path d="M364.342,395.359c-.011-.065-.017-.129-.018-.192-.002-.073-.009-.147-.022-.228-.041-.184-.102-.37-.176-.546-.027-.081-.067-.156-.119-.222-.05-.064-.108-.123-.172-.174l-.181-.143c-.058-.045-.116-.088-.174-.129-.035-.042-.086-.056-.12-.029l-.053-.087-.539-.269-.018-.054-.054-.014c-.025-.007-.036-.012-.045-.016l-.035-.017c-.024-.027-.054-.044-.088-.049-.054-.018-.104-.04-.148-.067-.051-.031-.105-.057-.161-.076-.039-.047-.084-.066-.118-.072-.024-.006-.044-.013-.061-.021-.019-.009-.039-.016-.059-.019-.055-.047-.115-.079-.177-.096-.042-.011-.084-.03-.133-.059-.042-.021-.083-.038-.126-.053-.024-.008-.048-.022-.081-.049-.056-.037-.113-.073-.171-.106l-.054-.162-.024.049-.081.028c-.031-.016-.062-.032-.093-.047-.085-.042-.171-.052-.257-.028l-.033.016c-.016.011-.032.026-.049.045-.014.015-.028.032-.055.066l-.257.464c-.06.095-.11.196-.149.3-.034.089-.081.172-.14.248l-.02.025-.002.032c-.001.025-.01.038-.016.046-.032.04-.048.087-.048.136-.004.005-.007.01-.011.015-.013.017-.025.038-.037.063-.02.041-.041.08-.062.116-.023.04-.046.083-.068.127-.031.063-.06.124-.088.185-.026.059-.054.118-.084.178l-.27.543c-.023.046-.043.092-.059.138-.014.038-.029.074-.044.104-.049.087-.092.177-.129.268-.032.082-.073.161-.122.236-.067.109-.122.221-.164.331-.037.096-.09.191-.156.281-.023.031-.04.061-.052.092-.007.019-.016.038-.026.059l-.138.279c-.047.105-.094.208-.141.31-.046.098-.1.198-.166.306-.048.096-.058.172-.023.245.062.1.129.111.177.106.006-.001.012-.002.018-.003.017.011.033.021.048.03.028.017.055.032.091.049l.142.053c.041.015.083.033.126.055.049.025.1.053.151.084l.291.176.027-.148c.005-.025.013-.049.026-.07.018-.03.037-.061.058-.091.025-.037.046-.074.065-.111.016-.032.028-.068.035-.106.042-.038.074-.085.096-.14.017-.046.038-.093.059-.135.042-.071.074-.148.094-.229.014-.058.039-.112.076-.166.054-.084.101-.171.138-.259l.056-.131c.005.003.011.006.017.008.126.057.251.122.371.193.129.076.265.144.406.202.051.02.102.042.154.068.061.03.122.054.174.069.053.02.103.041.153.063.055.024.112.045.183.065.071.013.141.03.21.05.075.022.152.04.227.054.086.019.17.035.251.048.084.013.171.02.255.02h0c.285.005.569-.049.839-.164.136-.054.255-.129.353-.223.088-.084.178-.166.271-.248.031-.027.055-.058.071-.091.008-.015.018-.031.04-.064l.221-.444c.027-.055.051-.109.072-.164.024-.062.037-.132.04-.206.002-.038.011-.076.027-.113.023-.054.032-.11.025-.169.021-.035.032-.072.034-.112.001-.035,0-.07-.003-.114ZM362.764,396.322l-.35.025-.081.03-.009.018-.344-.101c-.038-.009-.074-.022-.109-.039l-.246-.123c-.052-.026-.104-.045-.142-.052-.117-.042-.233-.091-.344-.146-.11-.055-.218-.115-.328-.181l-.348-.191.115-.231c.025-.05.049-.096.073-.138.022-.04.043-.085.062-.14l.233-.41.15-.056-.099-.047.017-.035c.024-.049.045-.096.058-.134l.046-.092.009-.041c.053-.066.095-.137.126-.212.016-.04.036-.081.06-.12.029.007.061.019.095.036l.413.206c.046.022.098.037.158.038.01.007.018.014.042.035.079.051.161.098.247.141.08.04.158.082.232.124.055.033.11.065.164.095.049.027.094.056.144.093.043.028.086.056.128.085.034.024.066.055.092.09.033.048.07.095.11.14.035.038.066.079.094.118.037.055.058.11.063.162.005.067.007.136.005.205-.008.178-.05.339-.123.475-.042.075-.093.144-.151.207-.055.059-.121.109-.199.149-.002,0-.016.007-.065.016Z" fill="#1d1e1d"/>
  </g>
</svg>